<svg width="1920" height="1080" viewBox="0 0 1920 1080" fill="none" xmlns="http://www.w3.org/2000/svg">
<g clip-path="url(#clip0_529_17)">
<rect width="1920" height="1080" fill="#030303"/>
<ellipse cx="714.5" cy="-43" rx="578.5" ry="519" fill="url(#paint0_radial_529_17)" fill-opacity="0.62"/>
<ellipse cx="49.5" cy="699" rx="578.5" ry="519" fill="url(#paint1_radial_529_17)" fill-opacity="0.69"/>
<g opacity="0.71" clip-path="url(#clip1_529_17)">
<path d="M1278.3 492.638C1273.1 487.533 1270.79 478.576 1275.2 472.747C1280.01 466.416 1289.47 466.968 1297.02 469.066C1304.58 471.164 1312.68 474.355 1319.91 471.25C1325.44 468.87 1329.04 463.213 1330.75 457.347C1332.46 451.482 1332.5 445.298 1332.92 439.199C1334.12 422.462 1338.44 405.357 1348.95 392.448C1359.47 379.539 1377.1 371.747 1392.9 376.496C1402.53 379.392 1410.33 386.386 1417.29 393.675C1422.8 399.455 1428.3 406.387 1428.13 414.449C1427.95 423.873 1419.95 431.358 1411.48 435.174C1403.01 438.991 1393.63 440.365 1385.26 444.402C1375.98 448.92 1368.44 456.452 1363.83 465.814C1362.81 467.913 1361.91 470.256 1362.37 472.551C1363.44 477.999 1370.49 479.14 1375.95 479.067L1406.49 478.625C1422.03 478.404 1439.79 479.165 1449.71 491.337C1455.26 498.135 1457.15 507.461 1456.35 516.259C1455.56 525.057 1452.3 533.438 1448.5 541.377C1444.28 550.15 1439.01 558.924 1430.8 563.992C1422.6 569.06 1410.77 569.207 1404.3 561.967C1399.48 556.543 1398.71 548.666 1396.28 541.757C1393.09 532.751 1385.44 524.419 1376.07 524.308C1366.95 524.186 1359.36 531.671 1355.11 539.929C1345.37 558.764 1347.51 582.803 1335.4 600.153C1331.69 605.462 1326.83 609.827 1321.19 612.906C1315.55 615.985 1309.29 617.696 1302.9 617.905C1296.5 618.114 1290.15 616.816 1284.33 614.111C1278.51 611.406 1273.38 607.369 1269.34 602.313C1264.52 596.178 1261.3 588.005 1263.62 580.533C1265.45 574.643 1270.32 570.311 1275.22 566.679C1283.1 560.85 1291.7 555.979 1298.93 549.316C1306.15 542.653 1312.03 533.696 1312.29 523.769C1312.92 501.78 1289.99 504.037 1278.3 492.638Z" stroke="#030303" stroke-width="0.23" stroke-miterlimit="10"/>
<path d="M1277.36 491.865C1272.12 486.65 1269.84 477.533 1274.35 471.655C1279.27 465.262 1288.89 465.9 1296.54 468.133C1304.19 470.367 1312.44 473.618 1319.8 470.526C1325.43 468.146 1329.13 462.44 1330.87 456.501C1332.62 450.562 1332.73 444.23 1333.21 438.095C1334.52 421.112 1339.05 403.798 1349.81 390.767C1360.56 377.735 1378.55 369.968 1394.53 374.95C1404.24 377.968 1412.14 385.122 1419.17 392.595C1424.72 398.51 1430.25 405.59 1430.01 413.762C1429.75 423.333 1421.58 430.855 1412.96 434.622C1404.35 438.389 1394.8 439.764 1386.28 443.788C1376.83 448.299 1369.12 455.889 1364.37 465.36C1363.32 467.483 1362.41 469.851 1362.84 472.183C1363.89 477.717 1371.03 478.931 1376.57 478.895L1407.58 478.686C1423.35 478.576 1441.37 479.484 1451.35 491.914C1456.93 498.859 1458.79 508.344 1457.91 517.265C1457.03 526.186 1453.68 534.665 1449.75 542.69C1445.4 551.574 1439.99 560.433 1431.62 565.501C1423.25 570.569 1411.26 570.642 1404.76 563.255C1399.88 557.721 1399.18 549.758 1396.76 542.69C1393.59 533.511 1385.92 524.996 1376.37 524.811C1367.13 524.627 1359.36 532.174 1354.99 540.506C1344.98 559.55 1346.96 583.968 1334.51 601.479C1330.7 606.834 1325.74 611.223 1319.99 614.302C1314.25 617.381 1307.88 619.068 1301.4 619.231C1294.91 619.393 1288.47 618.028 1282.58 615.24C1276.7 612.453 1271.52 608.318 1267.46 603.16C1262.64 596.963 1259.42 588.582 1261.83 581.072C1263.73 575.109 1268.69 570.741 1273.7 567.096C1281.74 561.243 1290.51 556.359 1297.89 549.66C1305.27 542.96 1311.31 533.904 1311.63 523.83C1312.38 501.362 1289.15 503.473 1277.36 491.865Z" stroke="#030303" stroke-width="0.24" stroke-miterlimit="10"/>
<path d="M1276.38 490.994C1271.1 485.656 1268.84 476.392 1273.46 470.453C1278.5 464.011 1288.25 464.722 1296 467.054C1303.75 469.385 1312.1 472.735 1319.59 469.643C1325.31 467.287 1329.11 461.52 1330.92 455.507C1332.73 449.494 1332.9 443.114 1333.43 436.843C1334.88 419.664 1339.61 402.081 1350.62 388.988C1361.62 375.895 1379.92 368.128 1396.11 373.269C1405.94 376.41 1413.92 383.724 1420.97 391.356C1426.58 397.405 1432.13 404.621 1431.82 412.928C1431.48 422.634 1423.14 430.205 1414.36 434.009C1405.58 437.813 1395.89 439.089 1387.22 443.114C1377.6 447.621 1369.72 455.268 1364.84 464.845C1363.74 466.992 1362.81 469.385 1363.24 471.753C1364.26 477.373 1371.5 478.662 1377.12 478.662H1408.58C1424.59 478.662 1442.86 479.717 1452.91 492.417C1458.51 499.497 1460.33 509.13 1459.38 518.186C1458.42 527.241 1454.95 535.806 1450.94 543.954C1446.47 552.936 1440.92 561.881 1432.39 566.974C1423.86 572.066 1411.7 572.041 1405.15 564.52C1400.24 558.863 1399.59 550.727 1397.18 543.586C1394.03 534.248 1386.34 525.56 1376.62 525.29C1367.24 525.045 1359.3 532.653 1354.81 541.07C1344.51 560.323 1346.37 585.11 1333.62 602.779C1329.72 608.193 1324.65 612.616 1318.8 615.704C1312.95 618.791 1306.48 620.459 1299.89 620.578C1293.3 620.697 1286.77 619.263 1280.82 616.388C1274.86 613.514 1269.64 609.276 1265.56 604.007C1260.66 597.675 1257.49 589.147 1260 581.502C1261.96 575.465 1267.03 571.072 1272.14 567.403C1280.34 561.525 1289.28 556.642 1296.81 549.893C1304.34 543.144 1310.54 534.002 1310.95 523.781C1311.84 500.945 1288.19 502.909 1276.38 490.994Z" stroke="#030303" stroke-width="0.24" stroke-miterlimit="10"/>
<path d="M1275.39 490.159C1270.06 484.711 1267.84 475.299 1272.58 469.299C1277.73 462.796 1287.63 463.593 1295.47 466.011C1303.31 468.428 1311.77 471.9 1319.38 468.808C1325.2 466.452 1329.09 460.636 1330.98 454.55C1332.87 448.464 1333.06 441.985 1333.64 435.628C1335.24 418.167 1340.15 400.399 1351.42 387.147C1362.7 373.895 1381.29 366.164 1397.69 371.526C1407.64 374.778 1415.67 382.263 1422.79 390.055C1428.43 396.19 1434.02 403.553 1433.63 412.02C1433.24 421.836 1424.71 429.493 1415.78 433.285C1406.86 437.076 1397.01 438.303 1388.18 442.328C1378.38 446.831 1370.33 454.534 1365.3 464.219C1364.18 466.379 1363.2 468.808 1363.62 471.213C1364.62 476.931 1371.96 478.281 1377.66 478.33L1409.58 478.563C1425.82 478.686 1444.35 479.889 1454.46 492.846C1460.1 500.074 1461.87 509.866 1460.84 519.032C1459.82 528.198 1456.23 536.886 1452.08 545.095C1447.49 554.175 1441.78 563.206 1433.09 568.311C1424.41 573.416 1412.06 573.305 1405.47 565.599C1400.53 559.82 1399.93 551.562 1397.53 544.297C1394.4 534.812 1386.62 525.891 1376.8 525.597C1367.27 525.266 1359.18 532.959 1354.55 541.438C1343.98 560.9 1345.68 586.054 1332.63 603.908C1328.64 609.375 1323.46 613.829 1317.51 616.92C1311.55 620.011 1304.97 621.657 1298.28 621.728C1291.59 621.8 1284.98 620.295 1278.96 617.331C1272.94 614.367 1267.67 610.025 1263.57 604.644C1258.63 598.178 1255.49 589.515 1258.08 581.76C1260.12 575.624 1265.31 571.231 1270.5 567.55C1278.87 561.648 1287.96 556.752 1295.65 549.966C1303.34 543.181 1309.7 533.929 1310.18 523.585C1311.31 500.516 1287.29 502.344 1275.39 490.159Z" stroke="#030303" stroke-width="0.24" stroke-miterlimit="10"/>
<path d="M1274.4 489.337C1269.04 483.778 1266.85 474.207 1271.69 468.17C1276.96 461.618 1286.99 462.477 1294.93 464.992C1302.87 467.508 1311.42 471.127 1319.16 467.998C1325.09 465.655 1329.08 459.777 1331.03 453.605C1332.98 447.433 1333.23 440.88 1333.86 434.438C1335.61 416.732 1340.7 398.755 1352.22 385.356C1363.73 371.956 1382.67 364.287 1399.27 369.833C1409.34 373.208 1417.43 380.877 1424.56 388.816C1430.24 395.111 1435.86 402.62 1435.4 411.161C1434.94 421.149 1426.24 428.83 1417.16 432.61C1408.07 436.389 1398.09 437.518 1389.1 441.592C1379.12 446.104 1370.91 453.876 1365.76 463.679C1364.61 465.876 1363.6 468.317 1364.01 470.772C1364.99 476.576 1372.44 477.999 1378.2 478.134L1410.59 478.6C1427.06 478.846 1445.85 480.195 1456.02 493.399C1461.69 500.761 1463.42 510.712 1462.31 520.014C1461.21 529.315 1457.5 538.088 1453.24 546.383C1448.52 555.562 1442.68 564.691 1433.83 569.808C1424.97 574.925 1412.46 574.716 1405.82 566.863C1400.86 560.961 1400.29 552.58 1397.92 545.193C1394.81 535.548 1386.97 526.493 1377.01 526.075C1367.37 525.683 1359.08 533.438 1354.35 542.027C1343.51 561.66 1345.03 587.22 1331.68 605.233C1327.59 610.749 1322.31 615.229 1316.25 618.322C1310.18 621.415 1303.5 623.038 1296.72 623.064C1289.93 623.09 1283.24 621.519 1277.15 618.473C1271.06 615.426 1265.75 610.988 1261.62 605.503C1256.66 598.914 1253.51 590.091 1256.2 582.25C1258.31 576.115 1263.59 571.624 1268.9 567.93C1277.43 561.991 1286.68 557.095 1294.53 550.261C1302.38 543.426 1308.88 534.088 1309.44 523.597C1310.83 500.098 1286.39 501.779 1274.4 489.337Z" stroke="#030303" stroke-width="0.25" stroke-miterlimit="10"/>
<path d="M1273.41 488.515C1268 482.834 1265.85 473.115 1270.8 467.029C1276.18 460.415 1286.36 461.36 1294.4 463.961C1302.43 466.563 1311.08 470.244 1318.96 467.176C1324.98 464.833 1329.06 458.894 1331.09 452.66C1333.11 446.427 1333.4 439.764 1334.08 433.236C1335.97 415.296 1341.3 397.086 1353.02 383.601C1364.74 370.115 1384.05 362.434 1400.83 368.177C1411.04 371.674 1419.24 379.478 1426.47 387.564C1432.18 393.994 1437.83 401.651 1437.37 410.302C1436.81 420.437 1427.95 428.156 1418.71 431.935C1409.47 435.714 1399.33 436.843 1390.2 440.856C1380.06 445.355 1371.67 453.164 1366.37 463.053C1365.17 465.262 1364.15 467.741 1364.55 470.232C1365.51 476.122 1373.04 477.594 1378.9 477.741L1411.75 478.441C1428.45 478.797 1447.51 480.294 1457.72 493.755C1463.42 501.277 1465.12 511.375 1463.94 520.75C1462.76 530.125 1458.95 539.046 1454.57 547.427C1449.75 556.703 1443.73 565.931 1434.72 571.06C1425.71 576.189 1413.04 575.894 1406.34 567.882C1401.33 561.869 1400.82 553.353 1398.46 545.856C1395.36 536.039 1387.49 526.799 1377.38 526.321C1367.59 525.855 1359.14 533.683 1354.29 542.273C1343.13 562.139 1344.54 588.055 1330.88 606.228C1326.7 611.793 1321.32 616.299 1315.14 619.394C1308.97 622.49 1302.18 624.09 1295.3 624.071C1288.42 624.052 1281.64 622.414 1275.48 619.285C1269.33 616.156 1263.97 611.62 1259.81 606.031C1254.83 599.307 1251.71 590.349 1254.48 582.41C1256.66 576.152 1262.04 571.673 1267.45 567.968C1276.14 562.004 1285.52 557.096 1293.57 550.212C1301.61 543.328 1308.23 533.917 1308.86 523.278C1310.23 499.669 1285.53 501.215 1273.41 488.515Z" stroke="#030303" stroke-width="0.25" stroke-miterlimit="10"/>
<path d="M1272.38 487.595C1266.93 481.791 1264.81 471.901 1269.88 465.765C1275.39 459.09 1285.71 460.133 1293.86 462.832C1302 465.532 1310.72 469.336 1318.77 466.281C1324.9 463.949 1329.08 457.961 1331.17 451.642C1333.27 445.322 1333.58 438.573 1334.37 431.947C1336.4 413.762 1341.91 395.319 1353.95 381.723C1366 368.127 1385.6 360.483 1402.59 366.434C1412.92 370.054 1421.14 378.042 1428.42 386.337C1434.16 392.914 1439.85 400.731 1439.26 409.504C1438.62 419.775 1429.62 427.554 1420.17 431.321C1410.71 435.088 1400.46 436.144 1391.16 440.156C1380.83 444.641 1372.27 452.504 1366.82 462.501C1365.61 464.734 1364.53 467.238 1364.93 469.765C1365.85 475.753 1373.48 477.336 1379.38 477.508L1412.71 478.465C1429.66 478.944 1448.99 480.613 1459.25 494.356C1464.99 502.037 1466.64 512.296 1465.37 521.854C1464.11 531.413 1460.17 540.383 1455.67 548.85C1450.67 558.225 1444.52 567.538 1435.34 572.667C1426.17 577.796 1413.28 577.416 1406.56 569.231C1401.52 563.096 1401.07 554.507 1398.73 546.813C1395.65 536.837 1387.73 527.401 1377.48 526.824C1367.54 526.284 1358.91 534.125 1353.92 542.886C1342.45 562.961 1343.69 589.269 1329.69 607.614C1325.41 613.231 1319.91 617.764 1313.62 620.858C1307.34 623.953 1300.43 625.525 1293.45 625.453C1286.47 625.38 1279.6 623.665 1273.37 620.441C1267.15 617.216 1261.74 612.57 1257.57 606.866C1252.56 600.006 1249.45 590.914 1252.32 582.852C1254.59 576.52 1260.08 572.017 1265.57 568.287C1274.43 562.311 1284.03 557.402 1292.21 550.482C1300.38 543.561 1307.21 534.051 1307.92 523.253C1309.62 499.227 1284.54 500.577 1272.38 487.595Z" stroke="#030303" stroke-width="0.26" stroke-miterlimit="10"/>
<path d="M1271.34 486.674C1265.86 480.735 1263.78 470.722 1268.93 464.501C1274.57 457.765 1285.04 458.906 1293.28 461.704C1301.52 464.501 1310.37 468.428 1318.57 465.385C1324.81 463.066 1329.11 457.016 1331.28 450.66C1333.45 444.304 1333.85 437.42 1334.65 430.708C1336.86 412.302 1342.57 393.577 1354.89 379.883C1367.21 366.189 1387.16 358.556 1404.36 364.728C1414.81 368.41 1423.11 376.643 1430.42 385.122C1436.21 391.822 1441.92 399.847 1441.26 408.707C1440.55 419.124 1431.3 426.953 1421.73 430.696C1412.17 434.438 1401.7 435.457 1392.23 439.445C1381.76 443.927 1373.04 451.825 1367.44 461.9C1366.24 464.17 1365.03 466.71 1365.47 469.262C1366.36 475.398 1374.09 477.005 1380.13 477.214L1413.94 478.441C1431.14 479.054 1450.74 480.895 1461.07 494.908C1466.83 502.737 1468.42 513.167 1467.1 522.848C1465.77 532.53 1461.7 541.622 1457.05 550.187C1451.92 559.673 1445.62 569.072 1436.27 574.213C1426.92 579.355 1413.83 578.864 1407.09 570.532C1402.01 564.262 1401.62 555.501 1399.29 547.733C1396.24 537.585 1388.27 527.941 1377.87 527.29C1367.79 526.652 1358.99 534.554 1353.86 543.402C1342.07 563.697 1343.13 590.411 1328.81 608.915C1324.42 614.582 1318.81 619.14 1312.41 622.232C1306 625.325 1298.99 626.868 1291.9 626.742C1284.82 626.617 1277.86 624.825 1271.56 621.507C1265.27 618.188 1259.81 613.434 1255.62 607.614C1250.59 600.62 1247.5 591.343 1250.47 583.22C1252.8 576.802 1258.42 572.275 1264.04 568.495C1273.08 562.495 1282.86 557.587 1291.19 550.617C1299.53 543.647 1306.54 534.064 1307.35 523.106C1309.09 498.724 1283.6 499.927 1271.34 486.674Z" stroke="#030303" stroke-width="0.26" stroke-miterlimit="10"/>
<path d="M1270.32 485.73C1264.8 479.68 1262.75 469.471 1268.07 463.225C1273.82 456.44 1284.44 457.654 1292.78 460.562C1301.13 463.471 1310.07 467.508 1318.37 464.489C1324.72 462.17 1329.11 456.071 1331.37 449.593C1333.62 443.114 1334.06 436.181 1334.92 429.37C1337.33 410.67 1343.22 391.761 1355.81 377.956C1368.39 364.152 1388.69 356.544 1406.11 362.937C1416.69 366.815 1425.05 375.208 1432.41 383.797C1438.22 390.644 1443.97 398.78 1443.25 407.811C1442.45 418.376 1433.02 426.217 1423.29 429.984C1413.55 433.751 1402.93 434.659 1393.29 438.647C1382.6 443.112 1373.67 451.078 1367.91 461.286C1366.64 463.569 1365.5 466.195 1365.85 468.747C1366.72 474.882 1374.56 476.662 1380.68 476.932L1414.98 478.404C1432.42 479.165 1452.32 481.165 1462.68 495.46C1468.47 503.449 1470.01 514.038 1468.58 523.855C1467.15 533.671 1462.97 542.862 1458.2 551.513C1452.92 561.096 1446.46 570.594 1436.93 575.747C1427.41 580.901 1414.14 580.3 1407.35 571.772C1402.25 565.379 1401.91 556.482 1399.6 548.58C1396.59 538.26 1388.56 528.432 1378.01 527.72C1367.79 526.996 1358.81 534.947 1353.53 543.893C1341.48 564.397 1342.34 591.503 1327.67 610.154C1323.18 615.871 1317.45 620.453 1310.93 623.543C1304.42 626.633 1297.29 628.149 1290.1 627.971C1282.92 627.792 1275.87 625.926 1269.51 622.516C1263.15 619.106 1257.64 614.246 1253.43 608.314C1248.36 601.172 1245.3 591.736 1248.36 583.515C1250.77 577.024 1256.5 572.471 1262.24 568.716C1271.44 562.691 1281.4 557.783 1289.94 550.777C1298.48 543.77 1305.6 534.088 1306.52 522.971C1308.53 498.246 1282.65 499.289 1270.32 485.73Z" stroke="#030303" stroke-width="0.26" stroke-miterlimit="10"/>
<path d="M1269.28 484.822C1263.73 478.686 1261.72 468.268 1267.15 461.974C1273.04 455.127 1283.8 456.439 1292.24 459.446C1300.69 462.452 1309.73 466.612 1318.18 463.606C1324.63 461.299 1329.13 455.139 1331.43 448.586C1333.73 442.034 1334.26 435.003 1335.18 428.094C1337.7 409.148 1343.85 390.055 1356.71 376.079C1369.57 362.103 1390.22 354.605 1407.83 361.207C1418.54 365.207 1426.96 373.735 1434.33 382.558C1440.2 389.552 1445.97 397.835 1445.17 407.001C1444.29 417.713 1434.67 425.628 1424.77 429.346C1414.87 433.064 1404.09 433.947 1394.29 437.935C1383.41 442.383 1374.3 450.402 1368.39 460.722C1367.08 463.029 1365.9 465.63 1366.26 468.268C1367.09 474.551 1375.03 476.367 1381.24 476.674L1416.12 478.367C1433.81 479.251 1453.95 481.423 1464.39 496C1470.22 504.148 1471.71 514.897 1470.18 524.848C1468.65 534.8 1464.36 544.089 1459.46 552.838C1454.05 562.519 1447.41 572.103 1437.78 577.269C1428.14 582.435 1414.63 581.723 1407.78 573.023C1402.66 566.507 1402.38 557.476 1400.09 549.451C1397.1 538.96 1389.02 528.922 1378.32 528.1C1367.96 527.303 1358.79 535.303 1353.39 544.346C1340.98 565.059 1341.7 592.558 1326.69 611.406C1322.1 617.175 1316.26 621.785 1309.63 624.875C1302.99 627.966 1295.75 629.453 1288.46 629.222C1281.17 628.99 1274.03 627.046 1267.6 623.54C1261.17 620.035 1255.63 615.063 1251.39 609.013C1246.31 601.736 1243.26 592.153 1246.43 583.821C1248.93 577.256 1254.77 572.679 1260.6 568.912C1269.98 562.863 1280.11 557.942 1288.8 550.899C1297.48 543.856 1304.82 534.088 1305.8 522.824C1307.96 497.767 1281.71 498.651 1269.28 484.822Z" stroke="#030303" stroke-width="0.27" stroke-miterlimit="10"/>
<path d="M1268.25 483.901C1262.66 477.594 1260.69 467.066 1266.23 460.71C1272.26 453.801 1283.1 455.212 1291.7 458.317C1300.3 461.421 1309.41 465.679 1317.98 462.71C1324.54 460.427 1329.15 454.206 1331.55 447.568C1333.94 440.929 1334.51 433.8 1335.49 426.818C1338.17 407.602 1344.52 388.239 1357.66 374.201C1370.8 360.164 1391.79 352.642 1409.61 359.477C1420.46 363.624 1428.89 372.324 1436.39 381.331C1442.29 388.46 1448.09 396.902 1447.23 406.191C1446.28 417.051 1436.46 425.014 1426.39 428.72C1416.32 432.426 1405.39 433.248 1395.42 437.211C1384.36 441.653 1375.06 449.728 1369.01 460.157C1367.66 462.489 1366.45 465.066 1366.79 467.802C1367.6 474.171 1375.63 476.06 1381.93 476.391L1417.23 478.367C1435.16 479.386 1455.58 481.717 1466.07 496.577C1471.92 504.872 1473.37 515.793 1471.76 525.879C1470.14 535.965 1465.74 545.353 1460.7 554.187C1455.15 564.004 1448.37 573.649 1438.5 578.815C1428.63 583.981 1414.99 583.183 1408.12 574.324C1402.95 567.661 1402.72 558.507 1400.46 550.347C1397.5 539.683 1389.37 529.487 1378.52 528.554C1368.02 527.671 1358.66 535.72 1353.12 544.849C1340.4 565.82 1340.94 593.711 1325.62 612.731C1320.92 618.549 1314.96 623.183 1308.22 626.271C1301.47 629.359 1294.11 630.817 1286.72 630.532C1279.33 630.247 1272.1 628.227 1265.6 624.628C1259.1 621.029 1253.51 615.95 1249.25 609.786C1244.14 602.423 1241.12 592.607 1244.43 584.201C1247.01 577.563 1252.96 572.962 1258.89 569.182C1268.44 563.108 1278.74 558.139 1287.59 551.107C1296.45 544.076 1303.96 534.149 1305.03 522.738C1307.39 497.301 1280.71 498 1268.25 483.901Z" stroke="#030303" stroke-width="0.27" stroke-miterlimit="10"/>
<path d="M1264.9 480.441C1259.2 473.692 1257.41 462.611 1263.38 456.096C1269.86 449.028 1281.24 450.795 1290.11 454.267C1298.98 457.74 1308.46 462.477 1317.53 459.568C1324.45 457.347 1329.43 450.979 1332.11 444.071C1334.8 437.162 1335.57 429.738 1336.76 422.437C1340.06 402.387 1347.22 382.276 1361.35 367.919C1375.48 353.562 1397.63 346.249 1416.13 353.857C1427.36 358.483 1436.03 367.821 1443.61 377.441C1449.63 385.061 1455.46 394.068 1454.36 403.761C1453.08 415.112 1442.6 423.198 1431.96 426.806C1421.32 430.413 1409.84 431.002 1399.3 434.892C1387.6 439.246 1377.66 447.45 1371.06 458.206C1369.59 460.66 1368.25 463.323 1368.54 466.145C1369.23 472.845 1377.59 475.042 1384.2 475.582L1421.08 478.612C1439.84 480.159 1461.17 483.14 1471.77 498.982C1477.69 507.829 1478.93 519.302 1476.97 529.818C1475.02 540.334 1470.17 550.052 1464.68 559.182C1458.65 569.28 1451.27 579.232 1440.8 584.385C1430.33 589.539 1416.07 588.337 1409.1 578.864C1403.86 571.759 1403.84 562.163 1401.69 553.562C1398.86 542.322 1390.61 531.389 1379.27 530.149C1368.3 528.922 1358.29 537.131 1352.25 546.543C1338.38 568.139 1338.24 597.392 1321.67 616.878C1316.6 622.849 1310.25 627.546 1303.1 630.602C1295.96 633.659 1288.21 634.993 1280.48 634.5C1272.75 634.007 1265.23 631.701 1258.51 627.761C1251.8 623.821 1246.07 618.354 1241.77 611.786C1236.6 603.884 1233.69 593.588 1237.33 584.864C1240.19 577.968 1246.54 573.305 1252.86 569.501C1263.02 563.366 1273.94 558.519 1283.4 551.341C1292.86 544.162 1300.96 534.014 1302.37 522.087C1305.55 495.546 1277.64 495.546 1264.9 480.441Z" stroke="#021D35" stroke-width="0.28" stroke-miterlimit="10"/>
<path d="M1261.55 476.981C1255.74 469.778 1254.13 458.157 1260.53 451.494C1267.48 444.255 1279.33 446.378 1288.52 450.267C1297.71 454.157 1307.52 459.299 1317.06 456.476C1324.36 454.317 1329.72 447.752 1332.72 440.623C1335.71 433.493 1336.67 425.714 1338.09 418.106C1342 397.246 1349.95 376.386 1365.06 361.661C1380.16 346.936 1403.46 339.856 1422.64 348.298C1434.27 353.403 1443.11 363.379 1450.82 373.625C1456.92 381.736 1462.87 391.294 1461.46 401.406C1459.85 413.247 1448.7 421.444 1437.49 424.965C1426.27 428.487 1414.26 428.806 1403.16 432.622C1390.81 436.9 1380.22 445.246 1373.04 456.341C1371.45 458.795 1370 461.63 1370.24 464.587C1370.79 471.606 1379.49 474.109 1386.37 474.833L1424.91 478.883C1444.5 480.956 1466.74 484.588 1477.44 501.412C1483.47 510.799 1484.45 522.824 1482.18 533.782C1479.9 544.739 1474.58 554.777 1468.63 564.188C1462.05 574.606 1454.17 584.84 1443.08 589.957C1431.98 595.074 1417.12 593.491 1410.05 583.429C1404.74 575.87 1404.95 565.833 1402.89 556.777C1400.2 544.96 1391.81 533.328 1380.01 531.757C1368.55 530.248 1357.9 538.555 1351.36 548.261C1336.38 570.495 1335.57 601.025 1317.8 621.051C1312.36 627.173 1305.61 631.933 1298.07 634.958C1290.53 637.983 1282.4 639.192 1274.32 638.49C1266.25 637.788 1258.44 635.194 1251.51 630.911C1244.58 626.628 1238.72 620.771 1234.37 613.799C1229.15 605.418 1226.34 594.583 1230.34 585.576C1233.49 578.435 1240.25 573.71 1246.95 569.894C1257.72 563.759 1269.25 558.851 1279.3 551.623C1289.36 544.396 1298.07 533.941 1299.78 521.499C1303.71 493.718 1274.52 493.092 1261.55 476.981Z" stroke="#023768" stroke-width="0.3" stroke-miterlimit="10"/>
<path d="M1258.2 473.52C1252.29 465.876 1250.85 453.691 1257.67 446.881C1265.08 439.518 1277.41 441.972 1286.93 446.181C1296.45 450.39 1306.58 455.998 1316.6 453.274C1324.27 451.188 1330 444.451 1333.25 437.076C1336.49 429.702 1337.68 421.591 1339.34 413.676C1343.87 391.957 1352.59 370.349 1368.7 355.366C1384.8 340.384 1409.3 333.463 1429.14 342.654C1441.19 348.237 1450.21 358.863 1458.05 369.735C1464.24 378.324 1470.22 388.436 1468.57 398.976C1466.64 411.247 1454.82 419.615 1443.04 423.051C1431.26 426.487 1418.71 426.548 1407.03 430.291C1394.05 434.485 1382.82 442.965 1375.1 454.39C1373.39 456.943 1371.8 459.839 1372 462.98C1372.43 470.342 1381.45 473.115 1388.62 474.023L1428.73 479.116C1449.14 481.705 1472.28 485.987 1483.12 503.792C1489.14 513.731 1489.97 526.309 1487.36 537.696C1484.74 549.083 1478.99 559.452 1472.58 569.146C1465.48 579.882 1457 590.386 1445.34 595.503C1433.68 600.62 1418.17 598.632 1410.99 587.957C1405.6 579.956 1406.04 569.477 1404.09 559.979C1401.52 547.574 1393.02 535.242 1380.71 533.352C1368.78 531.511 1357.48 539.954 1350.45 549.942C1334.32 572.851 1332.81 604.755 1313.84 625.186C1308.03 631.46 1300.88 636.282 1292.94 639.276C1285 642.27 1276.49 643.355 1268.07 642.446C1259.65 641.537 1251.55 638.66 1244.41 634.037C1237.26 629.415 1231.26 623.173 1226.87 615.799C1221.61 606.939 1218.9 595.552 1223.26 586.202C1226.7 578.839 1233.86 574.042 1240.93 570.189C1252.31 564.053 1264.45 559.219 1275.1 551.783C1285.75 544.347 1295.08 533.732 1297.18 520.775C1301.87 491.926 1271.4 490.638 1258.2 473.52Z" stroke="#01519A" stroke-width="0.31" stroke-miterlimit="10"/>
<path d="M1254.84 470.072C1248.82 461.973 1247.61 449.212 1254.84 442.267C1262.71 434.696 1275.52 437.53 1285.36 442.132C1295.2 446.733 1305.66 452.783 1316.16 450.132C1324.2 448.108 1330.32 441.199 1333.84 433.567C1337.35 425.934 1338.76 417.517 1340.64 409.295C1345.8 386.742 1355.32 364.385 1372.39 349.096C1389.46 333.806 1415.17 327.008 1435.67 337.058C1448.13 343.12 1457.35 354.372 1465.28 365.87C1471.57 374.974 1477.6 385.625 1475.67 396.546C1473.42 409.357 1460.94 417.787 1448.58 421.088C1436.22 424.388 1423.12 424.376 1410.87 428.057C1397.26 432.167 1385.4 440.782 1377.14 452.537C1375.3 455.163 1373.59 458.157 1373.72 461.384C1374.03 469.041 1383.36 472.158 1390.85 473.25L1432.57 479.385C1453.8 482.502 1477.85 487.435 1488.8 506.221C1494.91 516.713 1495.52 529.842 1492.57 541.659C1489.62 553.476 1483.42 564.176 1476.54 574.164C1468.93 585.208 1459.89 595.993 1447.63 601.098C1435.37 606.203 1419.23 603.798 1411.95 592.509C1406.5 584.054 1407.13 573.146 1405.29 563.194C1402.88 550.212 1394.23 537.18 1381.44 534.972C1369.04 532.812 1357.1 541.401 1349.57 551.66C1332.28 575.121 1330.1 608.35 1309.91 629.296C1303.73 635.72 1296.18 640.602 1287.84 643.561C1279.5 646.521 1270.61 647.477 1261.84 646.355C1253.08 645.234 1244.7 642.065 1237.34 637.097C1229.98 632.128 1223.84 625.494 1219.41 617.713C1214.09 608.362 1211.49 596.447 1216.22 586.778C1219.97 579.146 1227.51 574.311 1234.98 570.446C1246.95 564.225 1259.71 559.476 1270.96 552.04C1282.21 544.604 1292.15 533.634 1294.59 520.136C1299.99 490.135 1268.28 488.183 1254.84 470.072Z" stroke="#016BCD" stroke-width="0.32" stroke-miterlimit="10"/>
<path d="M1251.49 466.612C1245.37 458.022 1244.26 444.782 1251.96 437.665C1260.28 429.923 1273.58 433.113 1283.75 438.083C1293.92 443.052 1304.7 449.556 1315.68 446.991C1324.11 445.028 1330.57 437.948 1334.39 430.07C1338.21 422.192 1339.8 413.443 1341.91 404.927C1347.68 381.527 1358 358.421 1376.04 342.813C1394.09 327.205 1420.97 320.726 1442.15 331.463C1455.02 338.003 1464.4 349.869 1472.47 362.017C1478.87 371.6 1484.95 382.815 1482.74 394.19C1480.17 407.492 1467.01 416.032 1454.1 419.284C1441.19 422.536 1427.6 422.106 1414.72 425.689C1400.47 429.718 1387.95 438.47 1379.13 450.562C1377.18 453.261 1375.35 456.354 1375.42 459.716C1375.61 467.692 1385.29 471.115 1393.04 472.379L1436.4 479.533C1458.46 483.214 1483.38 488.748 1494.48 508.516C1500.66 519.56 1501.05 533.242 1497.77 545.488C1494.48 557.734 1487.83 568.802 1480.49 579.036C1472.37 590.398 1462.76 601.467 1449.91 606.547C1437.06 611.627 1420.28 608.841 1412.9 596.963C1407.37 588.055 1408.25 576.692 1406.5 566.287C1404.19 552.715 1395.45 538.984 1382.16 536.432C1369.29 533.978 1356.7 542.678 1348.68 553.231C1330.28 577.416 1327.4 611.983 1306.01 633.456C1299.46 640.029 1291.5 644.972 1282.77 647.898C1274.03 650.824 1264.75 651.655 1255.65 650.326C1246.55 648.997 1237.87 645.544 1230.29 640.236C1222.72 634.928 1216.44 627.909 1211.97 619.725C1206.6 609.909 1204.1 597.43 1209.21 587.441C1213.25 579.576 1221.18 574.667 1229.03 570.778C1241.61 564.532 1254.98 559.82 1266.84 552.237C1278.69 544.653 1289.22 533.438 1292.01 519.462C1298.18 488.356 1265.16 485.73 1251.49 466.612Z" stroke="#0085FF" stroke-width="0.34" stroke-miterlimit="10"/>
<path d="M1247.79 461.888C1241.6 452.783 1240.81 438.843 1249 431.591C1257.92 423.701 1271.78 427.395 1282.29 432.818C1292.81 438.242 1303.97 445.384 1315.5 442.991C1324.36 441.162 1331.33 433.923 1335.52 425.812C1339.71 417.701 1341.62 408.547 1344.04 399.675C1350.68 375.33 1362.11 351.415 1381.38 335.537C1400.65 319.658 1429 313.535 1450.91 325.401C1464.16 332.592 1473.79 345.292 1481.88 358.2C1488.32 368.41 1494.4 380.288 1491.81 392.166C1488.78 406.032 1474.78 414.633 1461.17 417.689C1447.56 420.744 1433.3 419.946 1419.77 423.358C1404.76 427.207 1391.44 436.035 1381.9 448.451C1379.78 451.237 1377.78 454.427 1377.78 457.949C1377.78 466.317 1387.84 470.146 1395.91 471.68L1441.11 480.269C1464.12 484.65 1490.1 491.178 1501.2 512.173C1507.38 523.891 1507.45 538.236 1503.7 550.985C1499.96 563.734 1492.69 575.097 1484.74 585.662C1475.95 597.344 1465.62 608.682 1452.02 613.664C1438.42 618.645 1420.93 615.271 1413.47 602.62C1407.92 593.147 1409.12 581.269 1407.54 570.348C1405.48 556.077 1396.7 541.463 1382.81 538.444C1369.39 535.499 1355.99 544.297 1347.31 555.132C1327.44 579.993 1323.55 616.118 1300.59 638.033C1293.56 644.755 1285.11 649.732 1275.89 652.575C1266.66 655.418 1256.92 656.051 1247.41 654.423C1237.91 652.796 1228.9 648.952 1221.1 643.193C1213.29 637.434 1206.9 629.914 1202.42 621.222C1197.04 610.78 1194.74 597.663 1200.36 587.343C1204.83 579.208 1213.26 574.275 1221.58 570.397C1234.92 564.2 1249.03 559.611 1261.65 551.991C1274.26 544.371 1285.57 532.91 1288.84 518.345C1296.13 485.889 1261.62 482.245 1247.79 461.888Z" stroke="#0085FF" stroke-width="0.35" stroke-miterlimit="10"/>
<path d="M1244.08 457.163C1237.83 447.494 1237.31 432.904 1246.07 425.505C1255.59 417.48 1269.98 421.677 1280.85 427.652C1291.71 433.628 1303.19 441.322 1315.35 439.101C1324.64 437.395 1332.11 429.984 1336.68 421.566C1341.24 413.148 1343.46 403.651 1346.19 394.436C1353.7 369.158 1366.24 344.396 1386.72 328.26C1407.19 312.124 1437.03 306.406 1459.66 319.327C1473.45 327.18 1483.08 340.69 1491.3 354.433C1497.8 365.268 1503.9 377.858 1500.93 390.19C1497.44 404.608 1482.61 413.271 1468.3 416.142C1453.99 419.014 1439.1 417.824 1424.86 421.051C1409.07 424.708 1394.92 433.619 1384.66 446.377C1382.37 449.236 1380.21 452.513 1380.11 456.194C1379.91 464.943 1390.35 469.189 1398.76 470.992L1445.84 481.116C1469.8 486.257 1496.81 493.705 1507.92 515.915C1514.12 528.321 1513.86 543.328 1509.64 556.556C1505.43 569.783 1497.6 581.514 1489.02 592.361C1479.55 604.374 1468.47 615.97 1454.09 620.854C1439.71 625.738 1421.56 621.799 1414.07 608.412C1408.48 598.362 1410.02 585.981 1408.63 574.52C1406.8 559.537 1397.92 544.052 1383.51 540.555C1369.55 537.168 1355.31 546.04 1345.99 557.157C1324.64 582.668 1319.73 620.339 1295.17 642.708C1287.66 649.557 1278.7 654.547 1268.99 657.288C1259.28 660.029 1249.08 660.447 1239.18 658.51C1229.29 656.572 1219.97 652.332 1211.94 646.119C1203.92 639.907 1197.42 631.89 1192.94 622.695C1187.55 611.651 1185.46 597.871 1191.56 587.22C1196.38 578.815 1205.33 573.87 1214.1 570.041C1228.19 563.906 1243.07 559.415 1256.43 551.746C1269.79 544.076 1281.92 532.358 1285.71 517.191C1294.08 483.435 1258.08 478.797 1244.08 457.163Z" stroke="#0085FF" stroke-width="0.37" stroke-miterlimit="10"/>
<path d="M1240.38 452.451C1234.05 442.205 1233.83 426.953 1243.13 419.431C1253.24 411.259 1268.17 415.958 1279.4 422.437C1290.63 428.916 1302.43 437.162 1315.18 435.15C1324.92 433.579 1332.87 426.008 1337.83 417.308C1342.8 408.608 1345.29 398.755 1348.34 389.196C1356.77 362.937 1370.27 337.377 1392.08 320.984C1413.88 304.59 1445.08 299.277 1468.43 313.265C1482.62 321.769 1492.43 336.089 1500.72 350.568C1507.28 362.029 1513.36 375.306 1509.98 388.116C1506.03 403.099 1490.31 411.823 1475.35 414.56C1460.39 417.296 1444.82 415.664 1429.89 418.744C1413.32 422.214 1398.35 431.207 1387.35 444.304C1384.94 447.236 1382.54 450.623 1382.42 454.464C1382.02 463.593 1392.82 468.268 1401.57 470.33L1450.56 481.889C1475.46 487.791 1503.56 496.16 1514.65 519.597C1520.86 532.689 1520.27 548.347 1515.58 562.078C1510.89 575.808 1502.45 587.846 1493.28 599.012C1483.14 611.283 1471.32 623.21 1456.26 627.996C1441.19 632.781 1422.25 628.266 1414.73 614.117C1409.11 603.503 1410.99 590.607 1409.77 578.606C1408.18 562.924 1399.24 546.555 1384.26 542.579C1369.8 538.739 1354.7 547.684 1344.74 559.096C1321.85 585.257 1315.96 624.511 1289.88 647.322C1281.9 654.309 1272.44 659.323 1262.24 661.971C1252.04 664.619 1241.38 664.831 1231.08 662.59C1220.79 660.348 1211.14 655.714 1202.9 649.049C1194.66 642.384 1188.03 633.869 1183.55 624.167C1178.17 612.51 1176.26 598.08 1182.88 587.085C1188.08 578.422 1197.53 573.452 1206.78 569.636C1221.62 563.501 1237.25 559.194 1251.35 551.463C1265.44 543.733 1278.34 531.83 1282.59 516.05C1292.04 480.981 1254.53 475.336 1240.38 452.451Z" stroke="#0085FF" stroke-width="0.39" stroke-miterlimit="10"/>
<path d="M1236.67 447.69C1230.28 436.892 1230.34 420.977 1240.19 413.333C1250.89 405.013 1266.38 410.216 1277.96 417.198C1289.53 424.18 1301.69 433.064 1315.01 431.174C1325.21 429.726 1333.64 421.996 1338.98 413.038C1344.31 404.08 1347.12 393.834 1350.48 383.932C1359.73 356.716 1374.37 330.346 1397.46 313.683C1420.55 297.019 1453.15 292.111 1477.24 307.179C1491.86 316.333 1501.8 331.463 1510.16 346.727C1516.79 358.814 1522.87 372.79 1519.1 386.079C1514.68 401.614 1498.16 410.388 1482.48 412.891C1466.8 415.394 1450.56 413.455 1434.9 416.363C1417.55 419.637 1401.77 428.704 1390.05 442.132C1387.44 445.15 1384.96 448.623 1384.7 452.635C1384.1 462.145 1395.29 467.225 1404.36 469.557L1455.17 482.65C1481.02 489.3 1510.12 498.601 1521.27 523.265C1527.49 537.045 1526.57 553.365 1521.41 567.587C1516.26 581.809 1507.22 594.214 1497.44 605.626C1486.6 618.265 1474.07 630.413 1458.26 635.076C1442.44 639.738 1422.8 634.658 1415.24 619.75C1409.58 608.571 1411.78 595.208 1410.75 582.631C1409.4 566.25 1400.4 548.997 1384.86 544.592C1369.8 540.285 1353.94 549.304 1343.32 561.01C1318.98 587.834 1312 628.634 1284.4 651.899C1275.94 659.015 1265.98 664.045 1255.3 666.597C1244.62 669.148 1233.5 669.152 1222.82 666.608C1212.14 664.064 1202.18 659.041 1193.71 651.931C1185.25 644.82 1178.51 635.814 1174.02 625.615C1168.64 613.344 1166.94 598.264 1174.02 586.938C1179.63 578.005 1189.58 573.023 1199.32 569.219C1214.98 563.084 1231.31 558.948 1246.18 551.169C1261.04 543.389 1274.71 531.205 1279.46 514.872C1289.99 478.527 1250.98 471.888 1236.67 447.69Z" stroke="#0085FF" stroke-width="0.4" stroke-miterlimit="10"/>
<path d="M1232.98 443.003C1226.51 431.641 1226.86 415.075 1237.24 407.283C1248.53 398.817 1264.57 404.522 1276.5 412.007C1288.42 419.493 1300.93 428.966 1314.85 427.248C1325.49 425.935 1334.41 418.045 1340.15 408.842C1345.88 399.639 1348.98 389 1352.65 378.742C1362.77 350.593 1378.49 323.389 1402.78 306.467C1427.08 289.546 1461.17 285.043 1485.98 301.179C1501.04 310.995 1511.14 326.947 1519.57 342.973C1526.24 355.685 1532.34 370.349 1528.17 384.116C1523.28 400.215 1505.93 409.05 1489.55 411.357C1473.17 413.664 1456.36 411.357 1440.03 414.057C1421.91 417.156 1405.31 426.318 1392.87 440.095C1390.09 443.187 1387.44 446.758 1387.1 450.93C1386.32 460.82 1397.87 466.317 1407.28 468.919L1459.95 483.496C1486.76 490.859 1516.89 501.129 1528.06 527.021C1534.29 541.488 1533.03 558.458 1527.41 573.171C1521.78 587.883 1512.16 600.645 1501.78 612.363C1490.28 625.333 1476.99 637.751 1460.44 642.328C1443.88 646.905 1423.52 641.248 1415.87 625.579C1410.17 613.836 1412.71 599.908 1411.85 586.84C1410.75 569.747 1401.68 551.623 1385.57 546.703C1369.97 541.942 1353.29 551.046 1342.03 563.035C1316.2 590.509 1308.24 632.867 1279.04 656.587C1270.1 663.848 1259.63 668.908 1248.46 671.369C1237.28 673.831 1225.7 673.628 1214.61 670.777C1203.53 667.926 1193.24 662.504 1184.55 654.934C1175.86 647.364 1169.01 637.851 1164.52 627.137C1159.14 614.265 1157.63 598.534 1165.23 586.865C1171.25 577.662 1181.66 572.655 1191.85 568.888C1208.21 562.826 1225.34 558.777 1240.96 550.961C1256.59 543.144 1271.08 530.689 1276.27 513.78C1287.94 476.073 1247.44 468.428 1232.98 443.003Z" stroke="#0085FF" stroke-width="0.42" stroke-miterlimit="10"/>
<path d="M1229 436.647C1222.51 424.56 1223.3 407.197 1234.39 399.344C1246.43 390.755 1263.07 397.172 1275.34 405.332C1287.62 413.492 1300.49 423.738 1315.09 422.315C1326.27 421.223 1335.82 413.185 1342.04 403.663C1348.25 394.141 1351.78 383.11 1355.9 372.471C1367.21 343.255 1384.37 315.179 1410.25 298.111C1436.14 281.042 1471.95 277.251 1497.51 294.773C1513.04 305.437 1523.19 322.395 1531.63 339.426C1538.29 352.924 1544.3 368.434 1539.58 382.742C1534.06 399.479 1515.65 408.265 1498.44 410.253C1481.23 412.24 1463.68 409.345 1446.51 411.774C1427.45 414.57 1409.86 423.753 1396.5 437.874C1393.52 441.04 1390.64 444.709 1390.2 449.065C1389.11 459.409 1401.04 465.471 1410.86 468.452L1465.66 485.104C1493.54 493.57 1524.84 505.068 1535.87 532.493C1542.02 547.794 1540.27 565.55 1534.01 580.803C1527.75 596.055 1517.33 609.172 1506.16 621.173C1493.79 634.45 1479.55 647.101 1462.11 651.457C1444.67 655.813 1423.47 649.347 1415.91 632.744C1410.24 620.29 1413.25 605.749 1412.7 592.055C1411.96 574.14 1402.93 554.911 1386.2 549.328C1369.97 543.929 1352.26 553.01 1340.17 565.28C1312.47 593.368 1303 637.53 1271.82 661.593C1262.28 668.959 1251.19 673.979 1239.42 676.26C1227.66 678.542 1215.53 678.023 1203.99 674.745C1192.46 671.466 1181.82 665.517 1172.91 657.361C1164.01 649.205 1157.07 639.063 1152.64 627.726C1147.32 614.105 1146.15 597.589 1154.4 585.576C1160.91 576.091 1171.98 571.121 1182.75 567.44C1200.03 561.538 1218.08 557.746 1234.64 549.979C1251.2 542.211 1266.66 529.536 1272.56 511.94C1285.71 472.759 1243.5 463.642 1229 436.647Z" stroke="#0085FF" stroke-width="0.44" stroke-miterlimit="10"/>
<path d="M1225.03 430.352C1218.52 417.566 1219.75 399.454 1231.52 391.478C1244.31 382.803 1261.57 389.896 1274.25 398.73C1286.92 407.565 1300.12 418.584 1315.44 417.443C1327.15 416.572 1337.33 408.4 1344.05 398.595C1350.77 388.791 1354.72 377.343 1359.28 366.311C1371.78 336.027 1390.33 307.081 1417.84 289.853C1445.35 272.625 1482.89 269.496 1509.17 288.478C1525.16 300.001 1535.38 317.928 1543.8 336.003C1550.45 350.261 1556.38 366.679 1551.1 381.478C1544.95 398.853 1525.51 407.59 1507.45 409.259C1489.39 410.927 1471.12 407.467 1453.11 409.59C1433.1 412.016 1414.45 421.165 1400.11 435.591C1396.92 438.819 1393.83 442.598 1393.26 447.138C1391.88 457.936 1404.24 464.563 1414.41 467.912L1471.34 486.65C1500.25 496.184 1532.77 508.958 1543.61 537.904C1549.63 554.052 1547.45 572.569 1540.55 588.386C1533.65 604.203 1522.48 617.639 1510.44 629.922C1497.19 643.506 1482.02 656.39 1463.68 660.537C1445.33 664.685 1423.31 657.384 1415.79 639.837C1410.16 626.683 1413.64 611.614 1413.39 597.221C1413.05 578.459 1404.04 558.139 1386.67 551.905C1369.8 545.856 1351.11 554.936 1338.17 567.464C1308.49 596.178 1297.63 642.119 1264.45 666.538C1254.3 674.013 1242.59 678.997 1230.23 681.1C1217.87 683.203 1205.2 682.369 1193.22 678.663C1181.23 674.957 1170.24 668.479 1161.12 659.735C1151.99 650.991 1144.97 640.216 1140.61 628.253C1135.37 613.872 1134.53 596.57 1143.43 584.202C1150.46 574.446 1162.16 569.477 1173.54 565.93C1191.76 560.163 1210.72 556.642 1228.22 548.911C1245.72 541.181 1262.18 528.321 1268.75 510.087C1283.5 469.459 1239.57 458.943 1225.03 430.352Z" stroke="#0085FF" stroke-width="0.46" stroke-miterlimit="10"/>
<path d="M1221.05 424.033C1214.53 410.535 1216.23 391.65 1228.65 383.539C1242.19 374.766 1260.07 382.545 1273.12 392.055C1286.18 401.565 1299.72 413.357 1315.73 412.498C1327.98 411.848 1338.79 403.541 1346.01 393.454C1353.24 383.368 1357.6 371.49 1362.6 360.078C1376.31 328.726 1396.33 298.921 1425.37 281.546C1454.41 264.17 1493.68 261.716 1520.77 282.11C1537.23 294.503 1547.53 313.498 1555.92 332.506C1562.58 347.562 1568.41 364.79 1562.58 380.202C1555.78 398.203 1535.29 406.903 1516.4 408.228C1497.51 409.553 1478.5 405.565 1459.65 407.394C1438.72 409.486 1419.07 418.627 1403.81 433.371C1400.4 436.671 1397.1 440.549 1396.4 445.285C1394.74 456.513 1407.51 463.691 1418.08 467.434L1477.11 488.294C1507.14 498.884 1540.77 512.946 1551.54 543.414C1557.56 560.409 1554.8 579.698 1547.26 596.055C1539.72 612.412 1527.73 626.204 1514.98 638.769C1500.87 652.66 1484.74 665.765 1465.49 669.704C1446.25 673.643 1423.42 665.519 1415.94 647.04C1410.34 633.174 1414.3 617.48 1414.32 602.473C1414.32 582.84 1405.4 561.464 1387.39 554.617C1369.94 547.93 1350.18 557.01 1336.4 569.796C1304.82 599.123 1292.48 646.856 1257.33 671.643C1246.56 679.219 1234.22 684.158 1221.26 686.073C1208.31 687.987 1195.1 686.827 1182.65 682.681C1170.21 678.535 1158.88 671.517 1149.54 662.173C1140.2 652.83 1133.11 641.414 1128.82 628.818C1123.65 613.688 1123.14 595.601 1132.71 582.889C1140.25 572.851 1152.57 567.968 1164.48 564.483C1183.63 558.863 1203.5 555.599 1221.93 547.917C1240.36 540.236 1257.83 527.143 1265.05 508.246C1281.27 466.096 1235.63 454.206 1221.05 424.033Z" stroke="#0085FF" stroke-width="0.48" stroke-miterlimit="10"/>
<path d="M1217.08 417.701C1210.54 403.492 1212.64 383.834 1225.8 375.674C1240.08 366.802 1258.57 375.281 1271.99 385.49C1285.41 395.7 1299.31 408.24 1316.03 407.676C1328.82 407.234 1340.24 398.792 1347.98 388.411C1355.71 378.03 1360.49 365.747 1365.92 353.955C1380.83 321.536 1402.29 290.859 1432.91 273.312C1463.53 255.765 1504.52 254.022 1532.38 275.84C1549.25 289.092 1559.66 309.106 1568.05 329.094C1574.69 344.911 1580.43 362.998 1574.07 378.926C1566.63 397.553 1545.09 406.216 1525.37 407.222C1505.65 408.228 1485.91 403.676 1466.22 405.197C1444.35 406.966 1423.68 416.101 1407.47 431.162C1403.86 434.536 1400.34 438.524 1399.52 443.433C1397.56 455.053 1410.81 462.845 1421.65 466.931L1482.82 489.84C1513.93 501.485 1548.72 516.836 1559.35 548.813C1565.28 566.667 1562.06 586.717 1553.87 603.626C1545.68 620.535 1532.93 634.671 1519.39 647.506C1504.4 661.716 1487.32 675.078 1467.18 678.772C1447.04 682.465 1423.38 673.569 1415.95 654.132C1410.37 639.567 1414.81 623.272 1415.13 607.639C1415.54 587.208 1406.62 564.691 1387.97 557.133C1369.9 549.77 1349.13 558.875 1334.51 571.931C1301 601.872 1287.21 651.408 1250.07 676.514C1238.7 684.206 1225.74 689.118 1212.2 690.864C1198.66 692.611 1184.9 691.145 1172.01 686.583C1159.12 682.02 1147.43 674.483 1137.87 664.56C1128.31 654.638 1121.13 642.599 1116.89 629.382C1111.78 613.504 1111.62 594.632 1121.83 581.527C1129.9 571.219 1142.84 566.372 1155.33 562.973C1175.4 557.501 1196.19 554.494 1215.56 546.85C1234.93 539.205 1253.39 525.99 1261.33 506.357C1279.05 462.845 1231.68 449.47 1217.08 417.701Z" stroke="#0085FF" stroke-width="0.5" stroke-miterlimit="10"/>
<path d="M1213.09 411.381C1206.55 396.46 1209.09 376.03 1222.93 367.772C1237.96 358.802 1257.07 367.968 1270.86 378.815C1284.65 389.662 1298.9 403.025 1316.33 402.743C1329.66 402.534 1341.7 393.945 1349.94 383.282C1358.18 372.618 1363.38 359.967 1369.21 347.697C1385.32 314.222 1408.22 282.662 1440.43 264.98C1472.64 247.298 1515.35 246.218 1543.96 269.459C1561.34 283.558 1571.77 304.614 1580.16 325.573C1586.78 342.163 1592.44 361.158 1585.53 377.576C1577.45 396.841 1554.86 405.455 1534.31 406.142C1513.76 406.829 1493.28 401.712 1472.75 402.939C1449.94 404.37 1428.25 413.497 1411.11 428.879C1407.29 432.328 1403.54 436.401 1402.6 441.506C1400.36 453.642 1413.95 461.973 1425.24 466.428L1488.53 491.423C1520.71 504.135 1556.68 520.762 1567.17 554.261C1573.03 572.962 1569.32 593.785 1560.49 611.234C1551.66 628.683 1538.12 643.138 1523.78 656.292C1507.92 670.808 1489.9 684.404 1468.86 687.876C1447.81 691.349 1423.35 681.643 1415.95 661.274C1410.4 645.997 1415.31 629.112 1415.95 612.829C1416.76 591.564 1407.86 567.943 1388.58 559.734C1369.9 551.782 1348.1 560.826 1332.64 574.152C1297.2 604.755 1281.92 656.046 1242.84 681.508C1230.86 689.302 1217.28 694.173 1203.15 695.738C1189.02 697.304 1174.73 695.523 1161.39 690.535C1148.04 685.546 1136.01 677.484 1126.23 666.979C1116.45 656.473 1109.19 643.808 1105 629.971C1099.98 613.344 1100.18 593.687 1111.03 580.275C1119.6 569.685 1133.17 564.875 1146.24 561.562C1167.23 556.249 1188.94 553.5 1209.25 545.905C1229.56 538.309 1249 524.824 1257.65 504.602C1276.84 459.532 1227.71 444.721 1213.09 411.381Z" stroke="#0085FF" stroke-width="0.52" stroke-miterlimit="10"/>
<path d="M1208.98 403.025C1202.5 387.233 1205.69 365.906 1220.4 357.624C1236.37 348.617 1256.15 358.728 1270.32 370.447C1284.48 382.165 1299.07 396.546 1317.3 396.706C1331.26 396.841 1344.09 388.116 1353 377.22C1361.91 366.324 1367.66 353.096 1374.12 340.494C1391.84 305.854 1416.63 273.422 1450.8 255.74C1484.97 238.058 1529.75 238.071 1559.11 263.164C1577.04 278.355 1587.37 300.725 1595.61 322.898C1602.14 340.457 1607.59 360.434 1599.92 377.502C1590.96 397.467 1567.1 405.897 1545.55 406.068C1524 406.24 1502.69 400.338 1481.15 401.074C1457.23 401.969 1434.29 410.958 1415.94 426.622C1411.86 430.131 1407.83 434.291 1406.71 439.616C1404.06 452.255 1418.07 461.348 1429.78 466.317L1495.43 494.159C1528.81 508.332 1566.05 526.689 1576.13 562.053C1581.8 581.797 1577.34 603.503 1567.7 621.541C1558.07 639.579 1543.47 654.414 1528.12 667.765C1511.14 682.49 1491.98 696.306 1469.78 699.386C1447.58 702.466 1422.29 691.656 1415.06 670.121C1409.64 653.973 1415.22 636.426 1416.26 619.394C1417.64 597.135 1408.93 572.176 1388.94 563.059C1369.57 554.237 1346.53 563.133 1330 576.68C1292.11 607.749 1274.84 661.09 1233.21 686.723C1220.46 694.568 1206.11 699.306 1191.27 700.568C1176.43 701.831 1161.5 699.583 1147.65 694C1133.81 688.417 1121.41 679.651 1111.44 668.384C1101.47 657.118 1094.19 643.657 1090.16 629.051C1085.34 611.504 1085.99 590.926 1097.73 577.158C1106.99 566.299 1121.31 561.624 1135.07 558.495C1157.2 553.476 1180 551.132 1201.46 543.77C1222.93 536.407 1243.62 522.738 1253.2 501.792C1274.51 455.151 1223.47 438.34 1208.98 403.025Z" stroke="#0085FF" stroke-width="0.55" stroke-miterlimit="10"/>
<path d="M1204.83 394.681C1198.42 378.005 1202.25 355.771 1217.82 347.464C1234.69 338.445 1255.16 349.501 1269.73 362.09C1284.29 374.68 1299.18 390.067 1318.27 390.681C1332.86 391.159 1346.48 382.398 1356.05 371.171C1365.61 359.943 1371.95 346.298 1378.99 333.266C1398.27 297.473 1425 264.158 1461.16 246.488C1497.32 228.818 1544.12 229.923 1574.26 256.869C1592.55 273.238 1602.9 296.823 1611.01 320.21C1617.42 338.727 1622.64 359.759 1614.24 377.416C1604.41 398.08 1579.3 406.314 1556.72 405.982C1534.13 405.651 1512.03 398.951 1489.49 399.209C1464.47 399.583 1440.28 408.438 1420.75 424.376C1416.38 427.947 1412.08 432.205 1410.8 437.751C1407.72 450.905 1422.17 460.746 1434.3 466.231L1502.29 496.908C1536.88 512.529 1575.39 532.628 1585.17 569.857C1590.64 590.631 1585.49 613.234 1574.94 631.861C1564.39 650.488 1548.83 665.63 1532.47 679.226C1514.4 694.27 1493.92 708.197 1470.75 710.884C1447.57 713.571 1421.25 701.656 1414.19 678.98C1408.89 661.961 1415.13 643.739 1416.6 625.959C1418.56 602.718 1410.02 576.397 1389.34 566.385C1369.3 556.691 1344.99 565.44 1327.39 579.207C1287.04 610.78 1267.74 666.145 1223.61 691.95C1210.1 699.848 1194.98 704.458 1179.43 705.422C1163.89 706.386 1148.33 703.678 1133.98 697.508C1119.63 691.339 1106.88 681.875 1096.71 669.855C1086.54 657.836 1079.24 643.585 1075.37 628.217C1070.72 609.737 1071.89 588.239 1084.49 574.127C1094.41 562.998 1109.51 558.458 1123.99 555.513C1147.24 550.801 1171.13 548.948 1193.76 541.708C1216.38 534.469 1238.32 520.738 1248.83 499.068C1272.19 450.77 1219.21 431.959 1204.83 394.681Z" stroke="#0085FF" stroke-width="0.57" stroke-miterlimit="10"/>
<path d="M1200.77 386.337C1194.43 368.778 1198.9 345.648 1215.34 337.316C1233.19 328.272 1254.3 340.261 1269.22 353.734C1284.15 367.207 1299.4 383.601 1319.31 384.656C1334.53 385.478 1348.94 376.631 1359.18 365.109C1369.42 353.587 1376.31 339.5 1383.93 326.039C1404.88 289.092 1433.45 254.869 1471.58 237.236C1509.7 219.603 1558.56 221.763 1589.46 250.574C1608.21 268.06 1618.52 292.921 1626.49 317.523C1632.8 336.997 1637.81 359.072 1628.65 377.331C1617.94 398.694 1591.5 406.78 1567.98 405.884C1544.45 404.989 1521.46 397.565 1497.92 397.295C1471.77 397.119 1446.31 405.818 1425.55 422.02C1420.93 425.702 1416.35 430.009 1414.88 435.776C1411.4 449.445 1426.26 460.035 1438.83 466.023L1509.17 499.583C1544.95 516.664 1584.73 538.494 1594.17 577.588C1599.42 599.405 1593.58 622.891 1582.12 642.107C1570.67 661.323 1554.15 676.846 1536.81 690.65C1517.53 705.964 1495.97 720.1 1471.67 722.345C1447.38 724.591 1420.18 711.621 1413.3 687.766C1408.13 669.888 1415.04 650.954 1416.97 632.462C1419.53 608.228 1411.17 580.558 1389.79 569.649C1369.06 559.084 1343.48 567.686 1324.81 581.674C1282.01 613.75 1260.68 671.14 1214.05 697.104C1199.78 705.059 1183.89 709.544 1167.64 710.211C1151.38 710.878 1135.19 707.708 1120.34 700.948C1105.48 694.189 1092.36 684.023 1082 671.245C1071.64 658.466 1064.32 643.421 1060.61 627.284C1056.15 607.897 1057.83 585.466 1071.27 571.011C1081.89 559.611 1097.78 555.194 1112.92 552.445C1137.3 548.04 1162.3 546.629 1186.06 539.573C1209.81 532.518 1233.1 518.713 1244.48 496.258C1269.87 446.378 1214.93 425.603 1200.77 386.337Z" stroke="#0085FF" stroke-width="0.6" stroke-miterlimit="10"/>
<path d="M1196.66 377.981C1190.39 359.575 1195.45 335.524 1212.8 327.168C1231.6 318.088 1253.38 331.021 1268.68 345.378C1283.98 359.734 1299.55 377.122 1320.3 378.643C1336.16 379.797 1351.36 370.864 1362.25 359.01C1373.14 347.157 1380.62 332.641 1388.84 318.775C1411.4 280.662 1441.84 245.58 1481.95 227.972C1522.06 210.363 1572.95 213.603 1604.61 244.267C1623.88 262.882 1634.1 289.018 1641.95 314.836C1648.14 335.267 1652.94 358.384 1643.04 377.244C1631.46 399.332 1603.73 407.148 1579.19 405.786C1554.66 404.424 1530.85 396.166 1506.31 395.454C1479.06 394.745 1452.36 403.302 1430.42 419.775C1425.51 423.456 1420.65 427.91 1419.01 433.886C1415.11 448.071 1430.41 459.421 1443.39 465.925L1516.09 502.344C1553.07 520.873 1594.13 544.445 1603.2 585.392C1608.26 608.252 1601.71 632.622 1589.43 652.439C1577.16 672.256 1559.57 688.024 1541.25 702.135C1520.9 717.719 1498.09 731.965 1472.71 733.867C1447.33 735.769 1419.23 721.596 1412.48 696.638C1407.43 677.876 1415 658.329 1417.4 639.027C1420.52 613.823 1412.35 584.79 1390.26 572.986C1368.85 561.55 1342.01 570.004 1322.28 584.214C1277.02 616.792 1253.62 676.244 1204.52 702.343C1189.48 710.355 1172.83 714.717 1155.86 715.087C1138.89 715.458 1122.07 711.828 1106.7 704.48C1091.34 697.133 1077.85 686.267 1067.29 672.731C1056.73 659.195 1049.38 643.355 1045.82 626.449C1041.55 606.141 1043.74 582.79 1058.04 567.98C1069.32 556.31 1085.93 552.028 1101.82 549.463C1127.34 545.365 1153.43 544.395 1178.35 537.524C1203.27 530.652 1227.81 516.664 1240.12 493.534C1267.54 441.997 1210.67 419.186 1196.66 377.981Z" stroke="#0085FF" stroke-width="0.62" stroke-miterlimit="10"/>
<path d="M1192.55 369.637C1186.35 350.323 1192.11 325.462 1210.27 317.02C1230 307.915 1252.43 321.781 1268.09 337.021C1283.75 352.262 1299.66 370.655 1321.25 372.606C1337.74 374.103 1353.77 365.084 1365.29 352.973C1376.8 340.862 1384.88 325.855 1393.68 311.56C1417.87 272.294 1450.2 236.316 1492.28 218.695C1534.37 201.075 1587.31 205.418 1619.73 237.936C1639.41 257.691 1649.62 285.092 1657.31 312.124C1663.39 333.512 1667.98 357.673 1657.31 377.159C1644.84 399.909 1615.84 407.566 1590.32 405.7C1564.81 403.835 1540.17 394.792 1514.62 393.577C1486.24 392.329 1458.27 400.743 1435.12 417.492C1429.95 421.26 1424.8 425.787 1422.99 431.984C1418.67 446.709 1434.39 458.783 1447.8 465.802L1522.86 505.068C1561.03 525.057 1603.37 550.372 1612.08 593.184C1616.9 617.075 1609.67 642.328 1596.54 662.734C1583.41 683.14 1564.87 699.239 1545.48 713.608C1524.01 729.45 1500.01 743.868 1473.53 745.377C1447.05 746.886 1418.03 731.646 1411.51 705.485C1406.6 685.852 1414.83 665.642 1417.66 645.592C1421.37 619.394 1413.38 589.024 1390.59 576.312C1368.5 564.041 1340.41 572.312 1319.6 586.742C1271.88 619.873 1246.48 681.226 1194.86 707.571C1179.06 715.617 1161.64 719.834 1143.98 719.895C1126.31 719.956 1108.87 715.858 1093.01 707.922C1077.15 699.985 1063.31 688.425 1052.56 674.142C1041.81 659.858 1034.45 643.239 1031.04 625.579C1026.95 604.35 1029.64 580.067 1044.81 564.912C1056.77 552.973 1074.14 548.813 1090.73 546.506C1117.37 542.715 1144.56 542.187 1170.64 535.463C1196.72 528.738 1222.51 514.664 1235.69 490.81C1265.21 437.616 1206.4 412.805 1192.55 369.637Z" stroke="#0085FF" stroke-width="0.65" stroke-miterlimit="10"/>
<path d="M1188.53 358.765C1182.5 338.383 1189.2 312.431 1208.44 304.136C1229.34 295.129 1252.49 310.271 1268.52 326.603C1284.56 342.936 1300.75 362.679 1323.28 365.293C1340.53 367.305 1357.5 358.286 1369.91 345.93C1382.32 333.573 1391.12 318.051 1400.71 303.314C1427.03 262.821 1461.82 226.009 1506.34 208.67C1550.86 191.332 1606.2 197.283 1639.31 232.193C1659.43 253.397 1669.43 282.368 1676.79 310.885C1682.62 333.45 1686.8 358.875 1675.15 378.962C1661.53 402.461 1630.94 409.713 1604.27 407.074C1577.6 404.436 1552.02 394.325 1525.3 392.35C1495.61 390.288 1466.09 398.362 1441.4 415.296C1435.9 419.1 1430.4 423.701 1428.33 430.143C1423.44 445.433 1439.61 458.513 1453.46 466.219L1531.06 509.338C1570.53 531.266 1614.17 558.899 1622.26 603.969C1626.74 629.124 1618.5 655.384 1604.19 676.366C1589.88 697.349 1570.03 713.792 1549.34 728.271C1526.46 744.297 1500.94 758.764 1473.19 759.647C1445.44 760.531 1415.44 743.794 1409.25 716.222C1404.62 695.533 1413.75 674.575 1417.23 653.641C1421.78 626.302 1414.18 594.276 1390.64 580.361C1367.83 566.863 1338.18 574.839 1316.02 589.404C1265.21 622.793 1237.05 686.465 1182.31 712.651C1165.55 720.663 1147.2 724.622 1128.7 724.22C1110.19 723.818 1092.02 719.065 1075.61 710.332C1059.21 701.6 1045 689.124 1034.1 673.877C1023.21 658.631 1015.92 641.026 1012.8 622.437C1009.07 600.092 1012.52 574.741 1028.78 559.28C1041.61 547.083 1059.92 543.193 1077.35 541.144C1105.34 537.88 1133.82 538.052 1161.3 531.72C1188.79 525.388 1216.16 511.314 1230.63 486.674C1262.9 431.886 1201.93 404.35 1188.53 358.765Z" stroke="#0085FF" stroke-width="0.68" stroke-miterlimit="10"/>
<path d="M1184.52 347.905C1178.72 326.444 1186.29 299.461 1206.61 291.252C1228.66 282.331 1252.53 298.7 1268.91 316.198C1285.29 333.696 1301.77 354.691 1325.28 357.918C1343.27 360.434 1361.23 351.415 1374.49 338.788C1387.75 326.162 1397.32 310.259 1407.69 295.031C1436.1 253.335 1473.44 215.664 1520.35 198.596C1567.26 181.527 1625.04 189.098 1658.88 226.401C1679.41 249.065 1689.21 279.594 1696.22 309.584C1701.78 333.328 1705.56 360.016 1692.92 380.754C1678.12 404.988 1645.94 411.848 1618.15 408.436C1590.36 405.025 1563.79 393.859 1535.9 391.245C1504.9 388.369 1473.85 396.098 1447.64 413.21C1441.8 417.05 1435.93 421.799 1433.63 428.425C1428.15 444.291 1444.75 458.366 1459.06 466.759L1539.21 513.719C1579.98 537.61 1625.04 567.562 1632.38 614.878C1636.47 641.297 1627.24 668.55 1611.83 690.195C1596.41 711.841 1575.22 728.504 1553.26 743.156C1528.96 759.365 1501.94 773.832 1472.9 774.127C1443.86 774.421 1412.88 756.15 1407.05 727.167C1402.68 705.423 1412.71 683.729 1416.84 661.936C1422.23 633.468 1415.03 599.785 1390.74 584.631C1367.19 569.98 1336.01 577.588 1312.5 592.276C1258.59 625.959 1227.71 691.877 1169.81 717.915C1152.1 725.895 1132.82 729.598 1113.47 728.734C1094.12 727.869 1075.23 722.461 1058.27 712.932C1041.32 703.402 1026.75 690.009 1015.72 673.798C1004.68 657.587 997.47 638.997 994.652 619.48C991.255 596.03 995.447 569.599 1012.82 553.819C1026.55 541.389 1045.75 537.757 1064.02 536.039C1093.38 533.278 1123.16 534.149 1152.05 528.198C1180.95 522.247 1209.87 508.185 1225.59 482.797C1260.58 426.155 1197.48 395.884 1184.52 347.905Z" stroke="#0085FF" stroke-width="0.71" stroke-miterlimit="10"/>
<path d="M1180.51 337.034C1174.9 314.492 1183.38 286.491 1204.83 278.355C1228.06 269.533 1252.64 287.141 1269.37 305.78C1286.1 324.419 1302.85 346.703 1327.34 350.654C1346.06 353.673 1365.01 344.654 1379.14 331.757C1393.27 318.861 1403.59 302.308 1414.73 286.736C1445.34 243.789 1485.03 205.308 1534.43 188.571C1583.83 171.834 1643.88 180.926 1678.4 220.683C1699.36 244.795 1708.94 276.895 1715.65 308.369C1720.96 333.291 1724.34 361.244 1710.68 382.607C1694.72 407.59 1661.01 414.044 1632.03 409.872C1603.04 405.7 1575.58 393.43 1546.5 390.031C1514.19 386.343 1481.59 393.731 1453.86 411.026C1447.68 414.903 1441.46 419.615 1438.91 426.61C1432.89 443.052 1449.9 458.108 1464.65 467.189L1547.35 517.989C1589.41 543.831 1635.82 576.103 1642.51 625.677C1646.23 653.347 1636.01 681.619 1619.45 703.865C1602.89 726.112 1580.41 743.07 1557.17 757.856C1531.46 774.25 1502.97 788.803 1472.6 788.422C1442.23 788.042 1410.29 768.311 1404.78 737.916C1400.68 715.117 1411.61 692.687 1416.4 670.023C1422.62 640.401 1415.83 605.086 1390.78 588.766C1366.5 572.95 1333.79 580.177 1308.86 595.037C1251.85 629.026 1218.15 697.166 1157.19 723.093C1138.52 731.024 1118.31 734.456 1098.13 733.121C1077.95 731.787 1058.35 725.722 1040.85 715.4C1023.35 705.077 1008.42 690.777 997.241 673.613C986.058 656.449 978.919 636.886 976.379 616.449C973.331 591.908 978.27 564.372 996.748 548.285C1011.31 535.598 1031.48 532.223 1050.6 530.849C1081.31 528.616 1112.39 530.186 1142.68 524.603C1172.98 519.02 1203.5 504.97 1220.44 478.784C1258.26 420.437 1193.02 387.429 1180.51 337.034Z" stroke="#0085FF" stroke-width="0.74" stroke-miterlimit="10"/>
<path d="M1176.48 326.211C1171.09 302.59 1180.47 273.557 1202.98 265.52C1227.37 256.783 1252.66 275.656 1269.74 295.424C1286.82 315.192 1303.87 338.776 1329.32 343.39C1348.8 346.911 1368.72 337.88 1383.69 324.726C1398.66 311.572 1409.76 294.565 1421.7 278.49C1454.45 234.316 1496.57 195.05 1548.42 178.521C1600.26 161.992 1662.77 172.791 1697.99 214.891C1719.38 240.463 1728.74 274.122 1735.13 307.081C1740.17 333.168 1743.16 362.385 1728.51 384.386C1711.37 410.154 1676.09 416.155 1645.95 411.222C1615.81 406.289 1587.41 392.939 1557.16 388.803C1523.54 384.308 1489.41 391.35 1460.16 408.817C1453.63 412.744 1447.05 417.59 1444.26 424.769C1437.63 441.788 1455.1 457.838 1470.31 467.593L1555.56 522.247C1598.92 550.052 1646.69 584.643 1652.66 636.475C1656.01 665.397 1644.81 694.662 1627.1 717.535C1609.39 740.407 1585.63 757.623 1561.1 772.593C1533.96 789.171 1503.94 803.773 1472.31 802.767C1440.68 801.761 1407.75 780.557 1402.63 748.776C1398.8 724.922 1410.65 701.742 1416.06 678.207C1423.14 647.457 1416.75 610.485 1390.94 592.963C1365.94 575.98 1331.68 582.889 1305.42 597.871C1245.3 632.168 1208.84 702.528 1144.75 728.345C1105.7 744.076 1059.52 740.125 1023.59 717.989C987.653 695.852 962.755 656.034 958.298 613.479C955.6 587.809 961.285 559.218 980.86 542.813C996.302 529.879 1017.38 526.775 1037.35 525.72C1069.42 524.014 1101.8 526.272 1133.49 521.069C1165.18 515.866 1197.33 501.829 1215.47 474.87C1255.95 414.707 1188.55 378.975 1176.48 326.211Z" stroke="#0085FF" stroke-width="0.77" stroke-miterlimit="10"/>
<path d="M1172.47 315.302C1167.27 290.614 1177.57 260.55 1201.09 252.599C1226.65 244.01 1252.65 264.072 1270.09 284.981C1287.53 305.891 1304.81 330.751 1331.31 336.027C1351.52 340.064 1372.43 331.033 1388.26 317.621C1404.09 304.21 1415.96 286.687 1428.66 270.171C1463.59 224.769 1508.16 184.632 1562.37 168.41C1616.57 152.188 1681.55 164.582 1717.48 209.075C1739.29 236.071 1748.44 271.336 1754.5 305.768C1759.31 333.021 1761.87 363.514 1746.22 386.153C1727.91 412.633 1691.06 418.265 1659.77 412.572C1628.47 406.878 1599.15 392.472 1567.73 387.564C1532.8 382.25 1497.12 388.951 1466.35 406.608C1459.48 410.572 1452.55 415.492 1449.49 422.916C1442.26 440.524 1460.17 457.556 1475.84 467.998L1563.63 526.505C1608.28 556.261 1657.41 593.159 1662.72 647.248C1665.67 677.434 1653.48 707.706 1634.63 731.192C1615.78 754.678 1590.76 772.176 1564.99 787.318C1536.43 804.068 1504.91 818.719 1471.99 817.075C1439.07 815.43 1405.15 792.766 1400.39 759.537C1396.77 734.628 1409.58 710.712 1415.64 686.306C1423.56 654.402 1417.55 615.786 1391 597.061C1365.26 578.913 1329.46 585.466 1301.87 600.559C1238.65 635.15 1199.42 707.755 1132.23 733.438C1091.27 749.095 1043.26 744.138 1006.23 720.418C969.2 696.699 944 654.758 940.109 610.375C937.7 583.576 944.193 553.93 964.875 537.193C981.185 524.002 1003.2 521.167 1024.01 520.443C1057.43 519.216 1091.1 522.223 1124.22 517.388C1157.33 512.553 1191 498.54 1210.4 470.759C1253.63 408.977 1184.1 370.52 1172.47 315.302Z" stroke="#0085FF" stroke-width="0.8" stroke-miterlimit="10"/>
<path d="M1168.89 301.338C1164.07 275.337 1175.63 244.132 1200.47 236.426C1227.46 228.045 1254.21 249.814 1271.9 272.22C1289.58 294.626 1307.13 321.069 1334.67 327.303C1355.73 332.064 1377.87 323.155 1394.79 309.523C1411.7 295.89 1424.58 277.864 1438.31 260.906C1476.01 214.351 1523.72 173.429 1580.98 157.833C1638.23 142.237 1705.9 156.974 1742.39 204.535C1764.55 233.408 1773.23 270.551 1778.69 306.774C1783.02 335.451 1784.95 367.44 1767.97 390.742C1748.13 417.983 1709.4 422.916 1676.76 416.118C1644.13 409.32 1613.78 393.43 1580.99 387.503C1544.54 381.015 1507.02 387.081 1474.34 404.743C1467.04 408.719 1459.65 413.688 1456.27 421.382C1448.27 439.629 1466.58 457.949 1482.77 469.299L1573.22 532.886C1619.23 565.231 1669.73 605.185 1673.91 661.973C1676.23 693.668 1662.69 725.044 1642.36 749.095C1622.03 773.145 1595.38 790.815 1567.92 806.006C1537.59 822.805 1504.2 837.309 1469.77 834.72C1435.34 832.131 1400.39 807.479 1396.29 772.569C1393.18 746.383 1407.13 721.67 1414.13 696.27C1423.24 663.078 1417.94 622.474 1390.61 602.154C1364.11 582.521 1326.45 588.386 1297.19 603.454C1230.1 638.021 1187.15 713.007 1116.15 738.125C1072.85 753.451 1022.68 746.972 984.51 721.155C946.337 695.337 921.017 650.746 918.078 604.154C916.295 576.042 923.787 545.144 945.879 528.174C963.297 514.799 986.425 512.406 1008.24 512.222C1043.27 511.878 1078.47 515.903 1113.25 511.682C1148.04 507.461 1183.69 493.705 1204.72 465.164C1251.5 401.59 1179.65 359.464 1168.89 301.338Z" stroke="#0085FF" stroke-width="0.84" stroke-miterlimit="10"/>
<path d="M1165.32 287.374C1160.88 260.072 1173.69 227.714 1199.85 220.254C1228.27 212.143 1255.68 235.543 1273.7 259.348C1291.72 283.153 1309.42 311.29 1338.08 318.468C1359.99 323.953 1383.34 315.18 1401.35 301.289C1419.36 287.399 1433.24 268.895 1447.99 251.507C1488.5 203.725 1539.35 162.078 1599.59 147.206C1659.83 132.334 1730.24 149.329 1767.3 199.97C1789.8 230.647 1798 269.754 1802.87 307.768C1806.74 337.856 1808 371.367 1789.72 395.319C1768.34 423.321 1727.71 427.542 1693.75 419.652C1659.79 411.762 1628.4 394.411 1594.25 387.417C1556.29 379.761 1516.91 385.206 1482.32 402.89C1474.6 406.866 1466.76 411.885 1463.05 419.848C1454.27 438.745 1472.99 458.341 1489.55 470.6L1582.66 539.316C1630.01 574.25 1681.9 617.247 1684.94 676.747C1686.64 709.952 1671.69 742.432 1649.93 767.145C1628.16 791.858 1599.78 809.675 1570.76 824.879C1538.65 841.702 1503.39 856.058 1467.45 852.537C1431.5 849.015 1395.53 822.375 1392.02 785.76C1389.38 758.298 1404.57 732.8 1412.49 706.405C1422.79 671.912 1418.19 629.321 1390.08 607.418C1362.84 586.19 1323.32 591.466 1292.36 606.522C1221.4 641.052 1174.76 718.431 1099.91 742.996C1054.25 757.893 1001.99 749.917 962.707 721.989C923.426 694.061 897.95 646.831 895.95 598.055C894.745 568.606 903.31 536.469 926.799 519.265C945.325 505.694 969.561 503.755 992.376 504.062C1029.02 504.541 1065.73 509.559 1102.21 506.025C1138.68 502.491 1176.28 488.932 1198.94 459.593C1249.39 394.203 1175.22 348.421 1165.32 287.374Z" stroke="#0085FF" stroke-width="0.88" stroke-miterlimit="10"/>
<path d="M1161.73 273.447C1157.69 244.832 1171.75 211.333 1199.22 204.118C1229.06 196.277 1257.2 221.297 1275.51 246.574C1293.82 271.852 1311.65 301.596 1341.47 309.719C1364.24 315.94 1388.81 307.265 1407.92 293.215C1427.02 279.165 1441.9 260.084 1457.68 242.255C1501.04 193.258 1554.97 150.9 1618.19 136.727C1681.4 122.555 1754.58 141.807 1792.2 195.467C1815.09 228.058 1822.78 269.017 1827.06 308.823C1830.44 340.322 1831.07 375.343 1811.46 399.945C1788.57 428.732 1746.03 432.242 1710.72 423.26C1675.42 414.278 1643.04 395.467 1607.51 387.405C1568.04 378.561 1526.8 383.366 1490.31 401.062C1482.17 405.038 1473.87 410.118 1469.83 418.351C1460.19 437.874 1479.38 458.759 1496.48 471.925L1592.25 545.696C1640.95 583.22 1694.22 629.26 1696.13 691.435C1697.21 726.149 1680.97 759.734 1657.59 785.061C1634.21 810.387 1604.32 828.364 1573.7 843.592C1539.8 860.452 1502.69 874.673 1465.29 870.194C1427.89 865.716 1390.84 837.064 1387.94 798.804C1385.78 770.078 1402.17 743.782 1410.95 716.394C1422.44 680.6 1418.54 636.033 1389.66 612.535C1361.66 589.773 1320.28 594.411 1287.64 609.455C1212.81 643.935 1162.45 723.707 1083.77 747.709C1035.8 762.335 981.378 752.85 940.88 722.824C900.383 692.797 874.858 642.856 873.81 591.871C873.183 561.096 882.796 527.732 907.694 510.283C927.317 496.516 952.685 495.031 976.499 495.853C1014.76 497.166 1052.98 503.215 1091.15 500.32C1129.32 497.424 1168.86 484.11 1193.14 453.961C1247.24 386.816 1170.77 337.377 1161.73 273.447Z" stroke="#0085FF" stroke-width="0.92" stroke-miterlimit="10"/>
<path d="M1158.15 259.446C1154.53 229.53 1169.8 194.878 1198.6 187.908C1229.92 180.337 1258.72 207.014 1277.33 233.715C1295.94 260.416 1313.98 291.829 1344.87 300.909C1368.49 307.842 1394.26 299.314 1414.48 285.043C1434.71 270.772 1450.56 251.188 1467.42 232.954C1513.54 182.73 1570.65 139.697 1636.86 126.113C1703.06 112.529 1779 134.175 1817.16 190.89C1840.34 225.334 1847.62 268.195 1851.31 309.793C1854.22 342.715 1854.19 379.233 1833.24 404.498C1808.77 434.046 1764.37 436.843 1727.74 426.757C1691.11 416.67 1657.7 396.399 1620.82 387.282C1579.83 377.271 1536.73 381.463 1498.33 399.197C1489.75 403.185 1481.01 408.302 1476.65 416.805C1466.28 436.978 1485.83 459.139 1503.4 473.25L1601.78 551.991C1651.84 592.092 1706.48 641.187 1707.28 706.062C1707.71 742.273 1690.12 776.974 1665.31 802.914C1640.49 828.855 1608.93 846.978 1576.7 862.255C1541.02 879.152 1502.02 893.226 1463.07 887.803C1424.13 882.379 1386.07 851.801 1383.8 811.798C1382.1 781.784 1399.7 754.703 1409.41 726.321C1422.08 689.227 1418.89 642.672 1389.22 617.59C1360.47 593.282 1317.22 597.282 1282.91 612.314C1204.2 646.758 1150.13 728.885 1067.61 752.359C1017.31 766.728 960.72 755.685 919.114 723.56C877.508 691.435 851.814 638.892 851.718 585.699C851.658 553.599 862.33 519.008 888.638 501.313C909.369 487.349 935.845 486.319 960.671 487.644C1000.53 489.791 1040.27 496.871 1080.13 494.638C1119.99 492.405 1161.47 479.3 1187.34 448.353C1245.11 379.429 1166.34 326.321 1158.15 259.446Z" stroke="#0085FF" stroke-width="0.96" stroke-miterlimit="10"/>
<path d="M1154.57 245.47C1151.29 214.253 1167.82 178.447 1197.94 171.735C1230.64 164.373 1260.2 192.743 1279.1 220.904C1298 249.065 1316.24 282.098 1348.24 292.074C1372.71 299.743 1399.72 291.338 1421.01 276.846C1442.29 262.354 1459.22 242.316 1477.06 223.579C1525.99 172.14 1586.23 128.334 1655.41 115.474C1724.59 102.615 1803.26 126.506 1842.04 186.325C1865.53 222.573 1872.34 267.312 1875.43 310.738C1877.84 345.095 1877.18 383.134 1854.96 409.026C1828.95 439.334 1782.68 441.432 1744.7 430.254C1706.72 419.075 1672.28 397.381 1634.05 387.147C1591.54 375.964 1546.58 379.526 1506.28 397.27C1497.28 401.271 1488.08 406.436 1483.39 415.21C1472.24 436.07 1492.2 459.47 1510.24 474.453L1611.33 558.396C1662.74 601.098 1718.77 653.236 1718.43 720.811C1718.24 758.531 1699.3 794.337 1672.99 820.878C1646.69 847.42 1613.5 865.728 1579.65 881.005C1542.21 897.938 1501.35 911.878 1460.87 905.546C1420.38 899.214 1381.37 866.623 1379.69 824.928C1378.49 793.65 1397.27 765.771 1407.88 736.395C1421.74 698.012 1419.25 649.469 1388.81 622.793C1359.3 596.951 1314.2 600.313 1278.18 615.32C1195.61 649.678 1137.84 734.346 1051.48 757.157C998.856 771.096 940.121 758.605 897.299 724.37C854.476 690.134 828.771 634.929 829.626 579.539C830.132 546.101 841.877 510.271 869.582 492.343C891.421 478.195 918.969 477.619 944.831 479.447C986.305 482.429 1027.56 490.491 1069.12 488.944C1110.68 487.398 1154.1 474.477 1181.63 442.745C1242.97 372.03 1161.89 315.278 1154.57 245.47Z" stroke="#0085FF" stroke-miterlimit="10"/>
</g>
</g>
<defs>
<radialGradient id="paint0_radial_529_17" cx="0" cy="0" r="1" gradientUnits="userSpaceOnUse" gradientTransform="translate(714.5 -43) rotate(12.1006) scale(433.475 393.034)">
<stop stop-color="#023768"/>
<stop offset="1" stop-color="#0085FF" stop-opacity="0"/>
</radialGradient>
<radialGradient id="paint1_radial_529_17" cx="0" cy="0" r="1" gradientUnits="userSpaceOnUse" gradientTransform="translate(49.5 699) rotate(12.1006) scale(433.475 393.034)">
<stop stop-color="#023768"/>
<stop offset="1" stop-color="#0085FF" stop-opacity="0"/>
</radialGradient>
<clipPath id="clip0_529_17">
<rect width="1920" height="1080" fill="white"/>
</clipPath>
<clipPath id="clip1_529_17">
<rect width="1048" height="796.244" fill="white" transform="translate(829 111.474)"/>
</clipPath>
</defs>
</svg>
