<svg width="168" height="79" viewBox="0 0 168 79" fill="none" xmlns="http://www.w3.org/2000/svg">
<path d="M158.5 65.43L155.09 69.99L151.71 65.43H146.54L152.9 74.75V78.63H157.27V74.75L163.66 65.43H158.5ZM123.88 65.43V69.8H130.41V78.63H134.78V69.8H141.31V65.43H123.88V65.43ZM114.11 78.63H118.48V65.43H114.11V78.63ZM102.77 71.65H97.87V69.28H102.7C103.28 69.28 104.4 69.32 104.4 70.42C104.41 71.52 103.4 71.65 102.77 71.65ZM93.5 65.43V78.63H97.87V75.51H101.84L104.08 78.61L109.14 78.63L106.44 74.73C107.72 74.03 108.86 72.72 108.86 70.27C108.86 65.59 104.42 65.42 103.18 65.42H93.5V65.43ZM73.33 65.43V78.62H87.89V74.96H77.7V73.77H87.24V70.25H77.7V69.1H87.89V65.44H73.33V65.43ZM63.77 65.43L59.45 74.78L55.1 65.43H50.09L56.59 78.63H62.31L68.77 65.43H63.77ZM38.88 72.61L40.58 69.16L42.28 72.61H38.88ZM44 65.47H37.19L31.28 78.63H36.33L37.32 76.42H43.84L44.83 78.63H49.91L44 65.47ZM30.34 65.43H25.72L22.68 72.83L19.55 65.43H15.36L12.29 72.9L9.2 65.43H4.58L10.17 78.63H14.41L17.48 71.6L20.61 78.57L20.59 78.63H24.82L24.8 78.57L30.34 65.43Z" fill="white"/>
<path d="M135.88 53.13H132.87L134.37 54.92H134.39L135.88 53.13ZM138.29 50.25H130.44L131.94 52.04H136.79L138.29 50.25ZM140.71 47.37H128.03L129.53 49.16H139.21L140.71 47.37ZM143.12 44.49H125.61L127.11 46.28H141.62L143.12 44.49ZM145.54 41.61H123.2L124.7 43.4H144.05L145.54 41.61ZM147.95 38.72H120.77L122.27 40.51H146.45L147.95 38.72ZM150.37 35.84H118.36L119.86 37.63H148.87L150.37 35.84ZM152.78 32.96H115.94L117.44 34.75H151.29L152.78 32.96ZM86.97 54.05H85.65L86.3 54.83H86.32L86.97 54.05ZM89.07 51.51H83.53L84.18 52.29H88.42L89.07 51.51ZM91.17 48.97H81.4L82.05 49.75H90.52L91.17 48.97ZM93.27 46.43H79.28L79.93 47.21H92.62L93.27 46.43ZM95.37 43.89H77.16L77.81 44.67H94.72L95.37 43.89ZM97.47 41.35H75.03L75.68 42.13H96.82L97.47 41.35ZM99.57 38.81H72.91L73.56 39.59H98.92L99.57 38.81ZM101.66 36.27H70.79L71.44 37.05H101.02L101.66 36.27ZM103.76 33.73H68.66L69.31 34.51H103.11L103.76 33.73ZM105.86 31.19H66.54L67.19 31.97H105.22L105.86 31.19ZM36.3 54.05H34.93L35.58 54.83H35.64L36.3 54.05ZM38.43 51.51H32.8L33.45 52.29H37.77L38.43 51.51ZM40.57 48.97H30.67L31.32 49.75H39.91L40.57 48.97ZM42.7 46.43H28.54L29.19 47.21H42.04L42.7 46.43ZM44.83 43.89H26.4L27.05 44.67H44.17L44.83 43.89ZM46.96 41.35H24.41L25.06 42.13H46.3L46.96 41.35ZM49.09 38.81H22.28L22.93 39.59H48.44L49.09 38.81ZM51.23 36.27H20.14L20.79 37.05H50.56L51.23 36.27ZM53.36 33.73H18.01L18.66 34.51H52.7L53.36 33.73ZM55.49 31.19H15.87L16.52 31.97H54.82L55.49 31.19ZM1.59 14.18H21.66L21.05 13.45H0.98L1.59 14.18ZM3.73 16.72H23.79L23.14 15.94H3.07L3.73 16.72ZM5.86 19.26H25.92L25.27 18.48H5.2L5.86 19.26ZM7.99 21.8H28.04L27.39 21.02H7.34L7.99 21.8ZM10.13 24.34H30.18L29.53 23.56H9.47L10.13 24.34ZM12.26 26.88H32.3L31.65 26.1H11.61L12.26 26.88ZM14.4 29.42H34.43L33.78 28.64H13.74L14.4 29.42ZM57.62 28.64H37.61L36.95 29.42H56.96L57.62 28.64ZM59.75 26.1H39.74L39.08 26.88H59.1L59.75 26.1ZM60.44 1.48001H61.66L61.05 0.76001L60.44 1.48001ZM58.3 4.02001H63.78L63.13 3.24001H58.96L58.3 4.02001ZM56.17 6.56001H65.92L65.26 5.78001H56.82L56.17 6.56001ZM54.03 9.10001H68.05L67.4 8.32001H54.69L54.03 9.10001ZM51.9 11.64H70.18L69.53 10.86H52.55L51.9 11.64ZM49.76 14.18H72.31L71.66 13.4H50.42L49.76 14.18ZM47.63 16.72H74.45L73.8 15.94H48.28L47.63 16.72ZM45.49 19.26H76.57L75.92 18.48H46.15L45.49 19.26ZM43.36 21.8H78.71L78.06 21.02H44.01L43.36 21.8ZM41.22 24.34H80.84L80.19 23.56H41.88L41.22 24.34ZM62.94 26.88H82.97L82.32 26.1H62.29L62.94 26.88ZM65.07 29.42H85.1L84.45 28.64H64.42L65.07 29.42ZM105.23 28.64H87.94L87.28 29.42H105.88L105.23 28.64ZM103.12 26.1H90.08L89.42 26.88H103.76L103.12 26.1ZM95.86 19.26H97.42L96.77 18.48H96.52L95.86 19.26ZM93.72 21.8H99.54L98.89 21.02H94.38L93.72 21.8ZM101.65 24.34L101 23.56H92.23L91.57 24.34H101.65ZM102.93 17.46H122.94L121.44 15.67H101.43L102.93 17.46ZM105.35 20.34H125.37L123.87 18.55H103.86L105.35 20.34ZM107.77 23.22H127.79L126.29 21.43H106.27L107.77 23.22ZM110.19 26.1H130.21L128.71 24.31H108.69L110.19 26.1ZM112.6 28.98H132.62L131.12 27.19H111.1L112.6 28.98ZM155.2 30.08H135.16L134.35 31.04L133.54 30.08H113.52L115.02 31.87H153.7L155.2 30.08ZM157.61 27.2H137.57L136.07 28.99H156.11L157.61 27.2ZM160.03 24.31H140L138.5 26.1H158.54L160.03 24.31ZM162.44 21.43H142.41L140.91 23.22H160.94L162.44 21.43ZM164.86 18.55H144.83L143.33 20.34H163.36L164.86 18.55ZM167.27 15.67H147.25L145.75 17.46H165.77L167.27 15.67Z" fill="white"/>
</svg>
