<svg width="122" height="57" viewBox="0 0 122 57" fill="none" xmlns="http://www.w3.org/2000/svg">
<path d="M77.2953 21.6201L70.013 12.8667L62.3574 21.9275L43.9575 0L25.3967 22.0812L14.6818 9.29505H0L18.0924 30.8347L18.0412 30.8932L25.3528 39.6028L43.9502 17.441L62.4598 39.5808L77.2953 21.6201ZM121.37 10.8247H106.717L97.2614 22.0959L87.8053 10.8247H73.1601L97.2833 39.5808L121.37 10.8247Z" fill="#F15A22"/>
<path d="M115.12 47.3318L112.624 50.6692L110.15 47.3318H106.366L111.021 54.1604V57.0001H114.219V54.1604L118.896 47.3318H115.12ZM89.7813 47.3318V50.5302H94.5606V56.9928H97.759V50.5302H102.538V47.3318H89.7813ZM82.6307 56.9928H85.8291V47.3391H82.6307V56.9928ZM74.3311 51.8842H70.7448V50.1496H74.2798C74.7043 50.1496 75.5241 50.1788 75.5241 50.9839C75.5241 51.789 74.7922 51.8842 74.3311 51.8842ZM67.5464 47.3318V56.9928H70.7448V54.7093H73.6504L75.2899 56.9781L78.9932 56.9928L77.0171 54.1384C77.9539 53.6261 78.7883 52.6673 78.7883 50.8742C78.7883 47.4489 75.5387 47.3245 74.6311 47.3245H67.5464V47.3318ZM52.7841 47.3391V56.9928H63.4405V54.3141H55.9825V53.4431H62.9648V50.8668H55.9825V50.0105H63.4405V47.3318H52.7841V47.3391ZM45.7799 47.3318L42.6181 54.175L39.4344 47.3318H35.7676L40.5249 56.9928H44.7113L49.4394 47.3318H45.7799ZM27.5704 52.5868L28.8146 50.0617L30.0588 52.5868H27.5704ZM31.3177 47.3684H26.3335L22.008 57.0001H25.7041L26.4286 55.3826H31.2006L31.9252 57.0001H35.6432L31.3177 47.3684ZM21.32 47.3318H17.9387L15.7137 52.7478L13.4229 47.3318H10.3562L8.10933 52.799L5.84778 47.3318H2.46643L6.55772 56.9928H9.66095L11.9079 51.8476L14.1987 56.9489L14.184 56.9928H17.28L17.2653 56.9489L21.32 47.3318Z" fill="white"/>
</svg>
