<svg width="1048" height="797" viewBox="0 0 1048 797" fill="none" xmlns="http://www.w3.org/2000/svg">
<g opacity="0.71" clip-path="url(#clip0_20_114)">
<path d="M449.305 381.638C444.101 376.533 441.788 367.576 446.197 361.747C451.015 355.416 460.471 355.968 468.024 358.066C475.576 360.164 483.683 363.355 490.91 360.25C496.439 357.87 500.041 352.213 501.752 346.347C503.462 340.482 503.498 334.298 503.92 328.199C505.124 311.462 509.437 294.357 519.953 281.448C530.469 268.539 548.103 260.747 563.895 265.496C573.532 268.392 581.326 275.386 588.288 282.675C593.805 288.455 599.298 295.387 599.129 303.449C598.948 312.873 590.95 320.358 582.482 324.174C574.014 327.991 564.63 329.365 556.258 333.402C546.981 337.92 539.442 345.452 534.829 354.814C533.805 356.913 532.914 359.256 533.372 361.551C534.444 366.999 541.49 368.14 546.947 368.067L577.495 367.625C593.034 367.404 610.789 368.165 620.715 380.337C626.256 387.135 628.147 396.461 627.352 405.259C626.557 414.057 623.305 422.438 619.498 430.377C615.282 439.15 610.006 447.924 601.803 452.992C593.6 458.06 581.771 458.207 575.303 450.967C570.484 445.543 569.713 437.666 567.28 430.757C564.088 421.751 556.439 413.419 547.068 413.308C537.949 413.186 530.36 420.671 526.108 428.929C516.375 447.764 518.507 471.803 506.401 489.153C502.691 494.462 497.828 498.827 492.19 501.906C486.551 504.985 480.291 506.696 473.897 506.905C467.503 507.114 461.148 505.816 455.328 503.111C449.507 500.406 444.379 496.369 440.343 491.313C435.524 485.178 432.296 477.005 434.621 469.533C436.452 463.643 441.318 459.311 446.221 455.679C454.099 449.85 462.699 444.979 469.927 438.316C477.154 431.653 483.033 422.696 483.286 412.769C483.924 390.78 460.989 393.037 449.305 381.638Z" stroke="#030303" stroke-width="0.23" stroke-miterlimit="10"/>
<path d="M448.365 380.865C443.125 375.65 440.836 366.533 445.354 360.655C450.268 354.262 459.893 354.9 467.542 357.133C475.191 359.367 483.442 362.618 490.802 359.526C496.427 357.146 500.125 351.44 501.872 345.501C503.619 339.562 503.727 333.23 504.209 327.095C505.522 310.112 510.051 292.798 520.808 279.767C531.565 266.735 549.549 258.968 565.534 263.95C575.242 266.969 583.144 274.122 590.167 281.595C595.72 287.51 601.249 294.59 601.008 302.762C600.755 312.333 592.576 319.855 583.963 323.622C575.351 327.389 565.799 328.764 557.282 332.788C547.829 337.299 540.119 344.889 535.371 354.36C534.323 356.483 533.408 358.851 533.841 361.183C534.889 366.717 542.032 367.931 547.573 367.895L578.579 367.686C594.347 367.576 612.367 368.484 622.353 380.914C627.93 387.859 629.785 397.344 628.906 406.265C628.027 415.186 624.678 423.665 620.751 431.69C616.403 440.574 610.994 449.433 602.622 454.501C594.25 459.569 582.265 459.642 575.76 452.255C570.882 446.721 570.183 438.758 567.762 431.69C564.594 422.511 556.921 413.996 547.369 413.811C538.13 413.627 530.36 421.174 525.988 429.506C515.978 448.55 517.965 472.968 505.51 490.479C501.704 495.835 496.736 500.223 490.992 503.302C485.248 506.381 478.884 508.068 472.395 508.231C465.907 508.393 459.469 507.028 453.583 504.24C447.698 501.453 442.523 497.318 438.463 492.16C433.645 485.963 430.417 477.582 432.826 470.072C434.729 464.109 439.692 459.741 444.703 456.096C452.738 450.243 461.507 445.359 468.891 438.66C476.275 431.96 482.31 422.904 482.635 412.83C483.382 390.362 460.146 392.473 448.365 380.865Z" stroke="#030303" stroke-width="0.24" stroke-miterlimit="10"/>
<path d="M447.377 379.994C442.101 374.656 439.837 365.392 444.462 359.453C449.497 353.011 459.254 353.722 467 356.054C474.745 358.385 483.105 361.735 490.585 358.643C496.307 356.287 500.113 350.52 501.92 344.507C503.727 338.494 503.896 332.114 504.426 325.843C505.883 308.664 510.605 291.081 521.615 277.988C532.625 264.895 550.922 257.128 567.112 262.269C576.941 265.41 584.915 272.724 591.974 280.356C597.575 286.405 603.128 293.621 602.815 301.928C602.478 311.634 594.142 319.205 585.361 323.009C576.579 326.813 566.895 328.089 558.222 332.114C548.597 336.621 540.722 344.268 535.841 353.845C534.745 355.992 533.805 358.385 534.239 360.753C535.263 366.373 542.502 367.662 548.115 367.662H579.579C595.588 367.662 613.861 368.717 623.907 381.417C629.508 388.497 631.327 398.13 630.376 407.185C629.424 416.241 625.955 424.806 621.944 432.954C617.475 441.936 611.922 450.881 603.393 455.974C594.865 461.066 582.699 461.041 576.146 453.519C571.243 447.863 570.593 439.727 568.184 432.586C565.028 423.248 557.342 414.56 547.622 414.29C538.238 414.045 530.3 421.653 525.807 430.07C515.508 449.323 517.375 474.11 504.618 491.779C500.722 497.193 495.651 501.616 489.8 504.704C483.949 507.791 477.476 509.459 470.888 509.578C464.299 509.697 457.773 508.263 451.819 505.388C445.864 502.514 440.642 498.276 436.56 493.006C431.658 486.675 428.49 478.147 430.995 470.502C432.959 464.465 438.03 460.072 443.137 456.403C451.34 450.525 460.278 445.642 467.807 438.893C475.335 432.144 481.539 423.002 481.948 412.781C482.84 389.945 459.194 391.909 447.377 379.994Z" stroke="#030303" stroke-width="0.24" stroke-miterlimit="10"/>
<path d="M446.39 379.159C441.065 373.711 438.837 364.299 443.583 358.299C448.727 351.796 458.628 352.593 466.47 355.011C474.312 357.428 482.768 360.9 490.381 357.808C496.199 355.452 500.089 349.636 501.981 343.55C503.872 337.463 504.064 330.985 504.643 324.628C506.245 307.167 511.147 289.399 522.422 276.147C533.697 262.895 552.295 255.164 568.69 260.526C578.639 263.778 586.674 271.263 593.793 279.055C599.43 285.19 605.019 292.553 604.634 301.02C604.236 310.836 595.708 318.493 586.782 322.285C577.856 326.076 568.015 327.303 559.186 331.328C549.38 335.831 541.327 343.534 536.299 353.219C535.178 355.379 534.203 357.808 534.624 360.213C535.624 365.931 542.96 367.281 548.658 367.33L580.579 367.563C596.816 367.686 615.355 368.889 625.461 381.846C631.098 389.074 632.869 398.866 631.845 408.032C630.821 417.198 627.232 425.886 623.076 434.095C618.487 443.175 612.777 452.206 604.092 457.311C595.407 462.416 583.06 462.305 576.471 454.599C571.532 448.82 570.93 440.562 568.533 433.297C565.401 423.812 557.62 414.891 547.802 414.597C538.274 414.266 530.179 421.959 525.554 430.438C514.978 449.9 516.676 475.054 503.631 492.908C499.642 498.375 494.465 502.829 488.507 505.92C482.548 509.011 475.968 510.657 469.281 510.728C462.594 510.8 455.982 509.295 449.961 506.331C443.94 503.367 438.673 499.025 434.573 493.644C429.634 487.178 426.49 478.515 429.08 470.76C431.116 464.624 436.307 460.231 441.499 456.55C449.871 450.648 458.965 445.752 466.651 438.966C474.336 432.181 480.696 422.929 481.178 412.584C482.31 389.516 458.291 391.344 446.39 379.159Z" stroke="#030303" stroke-width="0.24" stroke-miterlimit="10"/>
<path d="M445.402 378.337C440.042 372.778 437.849 363.207 442.692 357.17C447.956 350.618 457.99 351.477 465.928 353.992C473.866 356.508 482.418 360.127 490.164 356.998C496.09 354.655 500.077 348.777 502.029 342.605C503.98 336.433 504.233 329.88 504.859 323.438C506.606 305.732 511.701 287.755 523.217 274.356C534.733 260.956 553.669 253.287 570.268 258.833C580.338 262.208 588.432 269.877 595.564 277.816C601.237 284.111 606.862 291.62 606.405 300.161C605.935 310.149 597.238 317.83 588.155 321.61C579.073 325.389 569.087 326.518 560.101 330.592C550.124 335.104 541.909 342.876 536.756 352.679C535.612 354.876 534.6 357.317 535.01 359.772C535.985 365.576 543.442 366.999 549.2 367.134L581.59 367.6C598.057 367.846 616.848 369.195 627.015 382.399C632.688 389.761 634.423 399.713 633.315 409.014C632.207 418.315 628.496 427.088 624.244 435.383C619.522 444.562 613.68 453.691 604.827 458.808C595.973 463.925 583.458 463.716 576.82 455.863C571.858 449.961 571.291 441.58 568.918 434.193C565.811 424.548 557.969 415.493 548.007 415.075C538.371 414.683 530.083 422.438 525.349 431.027C514.508 450.66 516.026 476.22 502.679 494.233C498.595 499.749 493.314 504.229 487.249 507.322C481.184 510.415 474.499 512.038 467.716 512.064C460.933 512.09 454.237 510.519 448.149 507.473C442.061 504.426 436.747 499.988 432.621 494.503C427.659 487.914 424.515 479.091 427.201 471.25C429.309 465.115 434.585 460.624 439.897 456.931C448.425 450.992 457.676 446.096 465.53 439.261C473.384 432.426 479.877 423.088 480.443 412.597C481.828 389.098 457.387 390.779 445.402 378.337Z" stroke="#030303" stroke-width="0.25" stroke-miterlimit="10"/>
<path d="M444.414 377.515C439.006 371.834 436.849 362.115 441.8 356.029C447.185 349.415 457.363 350.36 465.398 352.961C473.432 355.563 482.081 359.244 489.959 356.176C495.982 353.833 500.065 347.894 502.089 341.66C504.113 335.427 504.402 328.764 505.076 322.236C506.967 304.296 512.304 286.086 524.024 272.601C535.745 259.115 555.054 251.434 571.834 257.176C582.036 260.674 590.239 268.478 597.467 276.564C603.177 282.994 608.826 290.651 608.368 299.302C607.814 309.437 598.948 317.156 589.709 320.935C580.47 324.714 570.328 325.843 561.197 329.856C551.056 334.355 542.673 342.164 537.371 352.053C536.166 354.262 535.154 356.741 535.552 359.232C536.516 365.122 544.044 366.594 549.898 366.741L582.747 367.441C599.454 367.797 618.511 369.294 628.725 382.755C634.423 390.276 636.122 400.375 634.941 409.75C633.761 419.125 629.954 428.046 625.57 436.426C620.751 445.703 614.728 454.931 605.718 460.06C596.708 465.189 584.036 464.894 577.338 456.882C572.327 450.869 571.822 442.353 569.461 434.856C566.365 425.039 558.487 415.799 548.381 415.321C538.587 414.855 530.143 422.683 525.289 431.273C514.135 451.139 515.544 477.055 501.884 495.228C497.703 500.793 492.317 505.299 486.144 508.394C479.972 511.49 473.181 513.09 466.302 513.071C459.422 513.052 452.64 511.414 446.484 508.285C440.328 505.156 434.966 500.62 430.814 495.031C425.828 488.307 422.708 479.349 425.478 471.41C427.659 465.152 433.043 460.673 438.451 456.968C447.136 451.004 456.52 446.096 464.567 439.212C472.613 432.328 479.226 422.916 479.865 412.278C481.226 388.669 456.532 390.215 444.414 377.515Z" stroke="#030303" stroke-width="0.25" stroke-miterlimit="10"/>
<path d="M443.378 376.595C437.933 370.791 435.813 360.901 440.885 354.765C446.39 348.09 456.713 349.133 464.856 351.832C472.999 354.532 481.72 358.336 489.766 355.281C495.897 352.949 500.077 346.961 502.173 340.642C504.269 334.322 504.582 327.573 505.365 320.947C507.401 302.762 512.906 284.319 524.952 270.723C536.997 257.127 556.596 249.483 573.592 255.434C583.915 259.054 592.143 267.042 599.418 275.337C605.164 281.914 610.85 289.731 610.259 298.504C609.621 308.775 600.623 316.554 591.167 320.321C581.711 324.088 571.46 325.144 562.161 329.156C551.834 333.641 543.268 341.504 537.816 351.501C536.612 353.734 535.528 356.238 535.925 358.765C536.853 364.753 544.478 366.336 550.38 366.508L583.711 367.465C600.659 367.944 619.992 369.613 630.255 383.356C635.989 391.037 637.639 401.296 636.374 410.854C635.11 420.413 631.171 429.383 626.666 437.85C621.667 447.225 615.523 456.538 606.344 461.667C597.166 466.796 584.277 466.416 577.555 458.231C572.52 452.096 572.074 443.507 569.725 435.813C566.654 425.837 558.728 416.401 548.477 415.824C538.539 415.284 529.914 423.125 524.915 431.886C513.448 451.961 514.689 478.269 500.692 496.614C496.409 502.231 490.909 506.764 484.623 509.858C478.336 512.953 471.432 514.525 464.451 514.453C457.469 514.38 450.598 512.665 444.375 509.441C438.151 506.216 432.744 501.57 428.574 495.866C423.563 489.006 420.455 479.914 423.322 471.852C425.587 465.52 431.079 461.017 436.572 457.287C445.426 451.311 455.026 446.402 463.205 439.482C471.384 432.561 478.214 423.051 478.925 412.253C480.623 388.227 455.544 389.577 443.378 376.595Z" stroke="#030303" stroke-width="0.26" stroke-miterlimit="10"/>
<path d="M442.342 375.674C436.861 369.735 434.778 359.723 439.933 353.501C445.57 346.765 456.038 347.906 464.277 350.704C472.517 353.501 481.37 357.428 489.573 354.385C495.813 352.066 500.113 346.016 502.282 339.66C504.45 333.304 504.847 326.42 505.654 319.708C507.859 301.302 513.568 282.577 525.891 268.883C538.214 255.189 558.162 247.556 575.363 253.728C585.807 257.41 594.106 265.643 601.418 274.122C607.212 280.822 612.921 288.847 612.259 297.707C611.548 308.124 602.297 315.953 592.733 319.696C583.169 323.438 572.701 324.457 563.233 328.445C552.757 332.927 544.038 340.825 538.443 350.9C537.238 353.17 536.034 355.71 536.467 358.262C537.359 364.398 545.092 366.005 551.127 366.214L584.939 367.441C602.141 368.054 621.739 369.895 632.074 383.908C637.832 391.737 639.422 402.167 638.097 411.848C636.772 421.53 632.701 430.622 628.051 439.187C622.919 448.673 616.619 458.072 607.272 463.213C597.925 468.355 584.831 467.864 578.085 459.532C573.014 453.262 572.617 444.501 570.292 436.733C567.244 426.585 559.27 416.941 548.874 416.29C538.792 415.652 529.987 423.555 524.855 432.402C513.075 452.697 514.135 479.411 499.812 497.915C495.424 503.582 489.809 508.14 483.406 511.232C477.004 514.325 469.986 515.868 462.901 515.742C455.816 515.617 448.856 513.825 442.563 510.507C436.27 507.188 430.814 502.434 426.623 496.614C421.587 489.62 418.504 480.343 421.467 472.22C423.804 465.802 429.417 461.275 435.043 457.495C444.077 451.495 453.858 446.587 462.194 439.617C470.529 432.647 477.54 423.064 478.347 412.106C480.093 387.724 454.605 388.927 442.342 375.674Z" stroke="#030303" stroke-width="0.26" stroke-miterlimit="10"/>
<path d="M441.318 374.73C435.801 368.68 433.754 358.471 439.066 352.225C444.824 345.44 455.436 346.654 463.784 349.563C472.131 352.471 481.069 356.508 489.369 353.489C495.717 351.17 500.113 345.071 502.366 338.593C504.618 332.114 505.064 325.181 505.919 318.37C508.329 299.67 514.219 280.761 526.807 266.956C539.394 253.152 559.691 245.544 577.11 251.937C587.686 255.815 596.045 264.208 603.405 272.797C609.223 279.644 614.969 287.78 614.246 296.811C613.451 307.376 604.02 315.217 594.287 318.984C584.554 322.751 573.929 323.659 564.293 327.647C553.599 332.112 544.669 340.078 538.913 350.286C537.636 352.569 536.503 355.195 536.853 357.747C537.72 363.882 545.562 365.662 551.681 365.932L585.975 367.404C603.417 368.165 623.317 370.165 633.676 384.46C639.47 392.449 641.012 403.038 639.579 412.855C638.145 422.671 633.965 431.862 629.195 440.513C623.919 450.096 617.463 459.594 607.934 464.747C598.406 469.901 585.144 469.3 578.35 460.772C573.255 454.379 572.906 445.482 570.605 437.58C567.593 427.26 559.559 417.432 549.007 416.72C538.792 415.996 529.806 423.947 524.53 432.893C512.484 453.397 513.34 480.503 498.668 499.154C494.176 504.871 488.449 509.453 481.932 512.543C475.416 515.633 468.287 517.149 461.101 516.971C453.916 516.792 446.868 514.926 440.507 511.516C434.146 508.106 428.644 503.246 424.43 497.314C419.359 490.172 416.299 480.736 419.359 472.515C421.768 466.024 427.502 461.471 433.236 457.716C442.439 451.691 452.4 446.783 460.941 439.777C469.481 432.77 476.6 423.088 477.516 411.971C479.527 387.246 453.653 388.289 441.318 374.73Z" stroke="#030303" stroke-width="0.26" stroke-miterlimit="10"/>
<path d="M440.282 373.822C434.729 367.686 432.718 357.268 438.15 350.974C444.041 344.127 454.797 345.44 463.241 348.446C471.685 351.452 480.732 355.612 489.176 352.606C495.632 350.299 500.125 344.139 502.426 337.586C504.727 331.034 505.257 324.003 506.184 317.094C508.702 298.148 514.845 279.055 527.71 265.079C540.575 251.103 561.221 243.605 578.832 250.207C589.541 254.207 597.961 262.735 605.332 271.558C611.199 278.552 616.969 286.835 616.174 296.001C615.294 306.713 605.67 314.628 595.768 318.346C585.867 322.064 575.086 322.947 565.293 326.935C554.411 331.383 545.297 339.402 539.394 349.722C538.081 352.029 536.901 354.63 537.262 357.268C538.093 363.551 546.032 365.367 552.235 365.674L587.119 367.367C604.815 368.251 624.955 370.423 635.386 385C641.217 393.148 642.71 403.897 641.18 413.848C639.651 423.8 635.362 433.089 630.46 441.838C625.051 451.519 618.414 461.103 608.778 466.269C599.141 471.435 585.626 470.723 578.784 462.023C573.664 455.507 573.375 446.476 571.087 438.451C568.099 427.96 560.017 417.922 549.32 417.1C538.961 416.303 529.794 424.303 524.385 433.347C511.978 454.059 512.701 481.558 497.692 500.406C493.098 506.175 487.257 510.785 480.625 513.875C473.993 516.966 466.75 518.453 459.461 518.222C452.172 517.99 445.034 516.046 438.604 512.54C432.174 509.035 426.627 504.063 422.394 498.013C417.311 490.736 414.264 481.153 417.432 472.821C419.925 466.256 425.767 461.68 431.597 457.912C440.981 451.863 451.111 446.942 459.796 439.899C468.481 432.856 475.817 423.088 476.805 411.824C478.961 386.767 452.713 387.651 440.282 373.822Z" stroke="#030303" stroke-width="0.27" stroke-miterlimit="10"/>
<path d="M439.246 372.901C433.657 366.594 431.694 356.066 437.235 349.71C443.258 342.801 454.099 344.212 462.699 347.317C471.3 350.421 480.407 354.679 488.983 351.71C495.536 349.427 500.15 343.206 502.547 336.568C504.944 329.929 505.51 322.8 506.486 315.818C509.172 296.602 515.52 277.239 528.662 263.201C541.804 249.164 562.787 241.642 580.615 248.477C591.456 252.624 599.888 261.324 607.392 270.331C613.295 277.46 619.089 285.902 618.234 295.191C617.282 306.051 607.465 314.014 597.394 317.72C587.324 321.426 576.387 322.248 566.425 326.211C555.359 330.653 546.063 338.728 540.009 349.157C538.66 351.489 537.455 354.066 537.792 356.802C538.599 363.17 546.634 365.06 552.934 365.391L588.228 367.367C606.164 368.385 626.581 370.717 637.073 385.577C642.915 393.872 644.373 404.793 642.759 414.879C641.144 424.965 636.736 434.353 631.701 443.187C626.148 453.004 619.366 462.649 609.5 467.815C599.635 472.98 585.987 472.183 579.121 463.324C573.954 456.661 573.725 447.507 571.46 439.347C568.497 428.683 560.366 418.487 549.525 417.554C539.021 416.67 529.661 424.72 524.12 433.849C511.4 454.82 511.942 482.711 496.62 501.731C491.92 507.549 485.963 512.183 479.216 515.271C472.468 518.359 465.111 519.817 457.719 519.532C450.327 519.247 443.099 517.226 436.6 513.628C430.101 510.029 424.505 504.95 420.25 498.786C415.143 491.423 412.12 481.607 415.432 473.201C418.01 466.563 423.96 461.961 429.887 458.182C439.439 452.108 449.738 447.139 458.592 440.107C467.445 433.076 474.962 423.149 476.034 411.738C478.395 386.301 451.714 387 439.246 372.901Z" stroke="#030303" stroke-width="0.27" stroke-miterlimit="10"/>
<path d="M435.898 369.441C430.2 362.692 428.405 351.612 434.38 345.096C440.861 338.028 452.244 339.795 461.109 343.267C469.975 346.74 479.455 351.477 488.525 348.568C495.452 346.347 500.427 339.979 503.113 333.071C505.799 326.162 506.57 318.738 507.762 311.437C511.063 291.387 518.218 271.276 532.348 256.919C546.477 242.562 568.629 235.249 587.132 242.857C598.358 247.483 607.031 256.821 614.608 266.441C620.631 274.061 626.461 283.068 625.365 292.761C624.076 304.112 613.596 312.198 602.96 315.806C592.323 319.413 580.844 320.002 570.304 323.892C558.604 328.246 548.664 336.45 542.057 347.206C540.587 349.66 539.25 352.323 539.539 355.145C540.226 361.845 548.585 364.042 555.198 364.582L592.082 367.612C610.837 369.159 632.17 372.14 642.771 387.982C648.685 396.829 649.926 408.302 647.974 418.818C646.023 429.334 641.168 439.052 635.676 448.182C629.653 458.28 622.269 468.232 611.801 473.385C601.333 478.539 587.071 477.337 580.097 467.864C574.857 460.759 574.845 451.163 572.689 442.562C569.858 431.322 561.607 420.389 550.272 419.149C539.298 417.922 529.288 426.131 523.253 435.543C509.377 457.139 509.244 486.392 492.669 505.878C487.6 511.849 481.245 516.546 474.101 519.602C466.956 522.659 459.215 523.993 451.481 523.5C443.747 523.007 436.229 520.701 429.514 516.761C422.8 512.821 417.069 507.354 412.77 500.786C407.602 492.884 404.687 482.588 408.325 473.864C411.192 466.968 417.54 462.305 423.864 458.501C434.019 452.366 444.944 447.519 454.4 440.341C463.856 433.162 471.963 423.014 473.372 411.087C476.552 384.546 448.642 384.546 435.898 369.441Z" stroke="#021D35" stroke-width="0.28" stroke-miterlimit="10"/>
<path d="M432.549 365.981C426.743 358.778 425.129 347.157 431.525 340.494C438.476 333.255 450.329 335.378 459.519 339.267C468.71 343.157 478.515 348.299 488.056 345.476C495.355 343.317 500.716 336.752 503.715 329.623C506.714 322.493 507.666 314.714 509.087 307.106C513.002 286.246 520.952 265.386 536.058 250.661C551.163 235.936 574.459 228.856 593.636 237.298C605.272 242.403 614.114 252.379 621.823 262.625C627.918 270.736 633.869 280.295 632.459 290.406C630.845 302.247 619.703 310.444 608.489 313.965C597.274 317.487 585.264 317.806 574.158 321.622C561.812 325.901 551.216 334.246 544.044 345.341C542.454 347.795 540.996 350.63 541.237 353.587C541.792 360.606 550.488 363.109 557.367 363.833L595.913 367.883C615.499 369.956 637.735 373.588 648.444 390.412C654.467 399.799 655.455 411.824 653.178 422.782C650.901 433.739 645.577 443.777 639.627 453.188C633.05 463.606 625.172 473.84 614.078 478.957C602.984 484.074 588.119 482.491 581.048 472.429C575.736 464.87 575.953 454.833 573.893 445.777C571.195 433.96 562.811 422.328 551.006 420.757C539.551 419.248 528.903 427.555 522.362 437.261C507.377 459.495 506.57 490.025 488.802 510.051C483.364 516.173 476.61 520.933 469.068 523.958C461.526 526.983 453.4 528.192 445.324 527.49C437.247 526.788 429.44 524.194 422.51 519.911C415.58 515.628 409.715 509.771 405.374 502.799C400.146 494.418 397.339 483.583 401.339 474.576C404.495 467.435 411.252 462.71 417.95 458.894C428.719 452.759 440.246 447.851 450.304 440.623C460.363 433.396 469.072 422.941 470.782 410.499C474.709 382.718 445.522 382.092 432.549 365.981Z" stroke="#023768" stroke-width="0.3" stroke-miterlimit="10"/>
<path d="M429.2 362.52C423.286 354.876 421.852 342.691 428.67 335.881C436.078 328.518 448.413 330.972 457.929 335.181C467.445 339.39 477.576 344.998 487.598 342.274C495.271 340.188 501.005 333.451 504.245 326.076C507.485 318.702 508.678 310.591 510.34 302.676C514.869 280.957 523.59 259.349 539.696 244.366C555.801 229.384 580.302 222.463 600.141 231.654C612.187 237.237 621.209 247.863 629.051 258.735C635.242 267.324 641.217 277.435 639.567 287.976C637.639 300.247 625.822 308.615 614.042 312.051C602.261 315.487 589.709 315.548 578.025 319.291C565.05 323.485 553.818 331.965 546.104 343.39C544.393 345.943 542.803 348.838 542.996 351.98C543.43 359.342 552.452 362.115 559.619 363.023L599.731 368.116C620.137 370.705 643.277 374.987 654.118 392.792C660.141 402.731 660.972 415.309 658.358 426.696C655.744 438.083 649.986 448.452 643.578 458.146C636.483 468.882 628.003 479.386 616.342 484.503C604.682 489.62 589.167 487.632 581.988 476.957C576.604 468.956 577.037 458.477 575.086 448.979C572.52 436.574 564.016 424.242 551.705 422.352C539.78 420.511 528.481 428.954 521.446 438.942C505.317 461.851 503.811 493.755 484.839 514.186C479.031 520.46 471.878 525.282 463.939 528.276C456 531.27 447.49 532.355 439.071 531.446C430.652 530.537 422.554 527.659 415.407 523.037C408.26 518.415 402.258 512.173 397.869 504.799C392.605 495.939 389.895 484.552 394.256 475.202C397.701 467.839 404.856 463.042 411.927 459.189C423.31 453.053 435.452 448.219 446.1 440.783C456.749 433.347 466.084 422.732 468.18 409.775C472.866 380.926 442.402 379.638 429.2 362.52Z" stroke="#01519A" stroke-width="0.31" stroke-miterlimit="10"/>
<path d="M425.84 359.072C419.817 350.973 418.612 338.212 425.84 331.267C433.705 323.696 446.522 326.53 456.363 331.132C466.205 335.733 476.66 341.783 487.164 339.132C495.199 337.108 501.318 330.199 504.835 322.567C508.353 314.934 509.762 306.517 511.641 298.295C516.797 275.742 526.325 253.385 543.394 238.096C560.462 222.806 586.168 216.008 606.67 226.058C619.125 232.12 628.352 243.372 636.278 254.87C642.566 263.974 648.601 274.625 646.673 285.546C644.421 298.357 631.941 306.787 619.583 310.088C607.224 313.388 594.118 313.376 581.868 317.057C568.264 321.167 556.395 329.782 548.14 341.537C546.297 344.163 544.586 347.157 544.719 350.384C545.032 358.041 554.355 361.158 561.848 362.25L603.574 368.385C624.798 371.502 648.854 376.435 659.803 395.221C665.91 405.713 666.525 418.842 663.574 430.659C660.622 442.476 654.419 453.176 647.541 463.164C639.928 474.208 630.894 484.993 618.631 490.098C606.369 495.203 590.227 492.798 582.952 481.509C577.495 473.054 578.133 462.146 576.29 452.194C573.881 439.212 565.232 426.18 552.44 423.972C540.045 421.812 528.096 430.401 520.567 440.66C503.281 464.121 501.101 497.35 480.913 518.296C474.732 524.72 467.178 529.602 458.84 532.561C450.502 535.521 441.605 536.477 432.844 535.355C424.083 534.234 415.696 531.065 408.335 526.097C400.975 521.128 394.841 514.494 390.413 506.713C385.089 497.362 382.487 485.448 387.221 475.778C390.967 468.146 398.508 463.311 405.976 459.446C417.95 453.225 430.706 448.476 441.957 441.04C453.207 433.604 463.145 422.634 465.59 409.136C470.987 379.135 439.283 377.184 425.84 359.072Z" stroke="#016BCD" stroke-width="0.32" stroke-miterlimit="10"/>
<path d="M422.491 355.612C416.372 347.022 415.263 333.782 422.961 326.665C431.284 318.923 444.583 322.113 454.749 327.083C464.916 332.052 475.697 338.556 486.682 335.991C495.114 334.028 501.571 326.948 505.389 319.07C509.208 311.192 510.798 302.443 512.906 293.927C518.676 270.527 528.999 247.421 547.043 231.813C565.088 216.205 591.974 209.726 613.15 220.463C626.015 227.003 635.399 238.869 643.469 251.017C649.866 260.6 655.949 271.815 653.744 283.19C651.166 296.492 638.013 305.032 625.1 308.284C612.187 311.536 598.599 311.106 585.722 314.689C571.472 318.718 558.947 327.47 550.127 339.562C548.176 342.261 546.345 345.354 546.417 348.716C546.61 356.692 556.295 360.115 564.04 361.379L607.404 368.533C629.46 372.214 654.383 377.748 665.477 397.516C671.656 408.56 672.054 422.242 668.765 434.488C665.477 446.734 658.827 457.802 651.492 468.036C643.373 479.399 633.76 490.467 620.908 495.547C608.055 500.627 591.275 497.841 583.903 485.963C578.374 477.055 579.254 465.692 577.495 455.287C575.194 441.715 566.449 427.984 553.163 425.432C540.286 422.978 527.698 431.678 519.676 442.231C501.282 466.416 498.403 500.983 477.01 522.456C470.458 529.029 462.504 533.972 453.769 536.898C445.033 539.824 435.752 540.655 426.65 539.326C417.547 537.997 408.869 534.544 401.292 529.236C393.715 523.928 387.444 516.909 382.969 508.725C377.597 498.909 375.103 486.43 380.21 476.441C384.246 468.576 392.184 463.668 400.026 459.778C412.613 453.532 425.984 448.82 437.837 441.237C449.69 433.653 460.218 422.438 463.013 408.462C469.18 377.356 436.163 374.73 422.491 355.612Z" stroke="#0085FF" stroke-width="0.34" stroke-miterlimit="10"/>
<path d="M418.793 350.888C412.601 341.783 411.806 327.843 419.997 320.591C428.923 312.701 442.776 316.395 453.292 321.818C463.808 327.242 474.974 334.384 486.502 331.991C495.355 330.162 502.33 322.923 506.522 314.812C510.714 306.701 512.617 297.547 515.038 288.675C521.675 264.33 533.107 240.415 552.38 224.537C571.653 208.658 599.996 202.535 621.907 214.401C635.158 221.592 644.794 234.292 652.877 247.2C659.321 257.41 665.404 269.288 662.815 281.166C659.779 295.032 645.782 303.633 632.17 306.689C618.559 309.744 604.297 308.946 590.769 312.358C575.761 316.207 562.436 325.035 552.898 337.451C550.778 340.237 548.778 343.427 548.778 346.949C548.778 355.317 558.836 359.146 566.907 360.68L612.114 369.269C635.122 373.65 661.104 380.178 672.198 401.173C678.378 412.891 678.45 427.236 674.704 439.985C670.958 452.734 663.694 464.097 655.744 474.662C646.95 486.344 636.615 497.682 623.016 502.664C609.416 507.646 591.926 504.271 584.469 491.62C578.916 482.147 580.121 470.269 578.543 459.348C576.483 445.077 567.702 430.463 553.813 427.444C540.394 424.499 526.987 433.297 518.314 444.132C498.439 468.993 494.548 505.118 471.589 527.033C464.565 533.755 456.11 538.732 446.885 541.575C437.661 544.418 427.916 545.051 418.411 543.423C408.907 541.796 399.9 537.952 392.095 532.193C384.29 526.434 377.898 518.914 373.417 510.222C368.044 499.78 365.744 486.663 371.357 476.343C375.826 468.208 384.258 463.275 392.581 459.397C405.916 453.201 420.034 448.611 432.645 440.991C445.257 433.371 456.568 421.91 459.845 407.345C467.132 374.889 432.621 371.245 418.793 350.888Z" stroke="#0085FF" stroke-width="0.35" stroke-miterlimit="10"/>
<path d="M415.083 346.163C408.831 336.494 408.313 321.904 417.07 314.505C426.586 306.48 440.981 310.677 451.846 316.652C462.711 322.628 474.191 330.322 486.345 328.101C495.644 326.395 503.113 318.984 507.678 310.566C512.243 302.149 514.46 292.651 517.194 283.436C524.699 258.158 537.238 233.396 557.716 217.26C578.194 201.124 608.031 195.406 630.665 208.327C644.445 216.18 654.082 229.69 662.297 243.433C668.801 254.268 674.897 266.858 671.933 279.19C668.44 293.608 653.612 302.271 639.301 305.143C624.991 308.014 610.103 306.824 595.865 310.051C580.072 313.708 565.925 322.619 555.656 335.377C553.367 338.237 551.211 341.513 551.115 345.194C550.91 353.943 561.354 358.189 569.762 359.992L616.836 370.116C640.795 375.257 667.814 382.705 678.92 404.915C685.123 417.321 684.858 432.328 680.642 445.556C676.426 458.784 668.597 470.514 660.02 481.362C650.552 493.375 639.47 504.97 625.088 509.854C610.705 514.738 592.564 510.799 585.072 497.412C579.483 487.362 581.024 474.981 579.627 463.52C577.796 448.538 568.918 433.052 554.512 429.555C540.551 426.168 526.313 435.04 516.989 446.157C495.644 471.668 490.73 509.339 466.169 531.708C458.662 538.557 449.704 543.547 439.993 546.288C430.282 549.029 420.08 549.447 410.184 547.51C400.288 545.573 390.965 541.332 382.943 535.119C374.921 528.907 368.416 520.89 363.937 511.695C358.552 500.651 356.456 486.871 362.564 476.22C367.382 467.815 376.332 462.87 385.101 459.041C399.195 452.906 414.071 448.415 427.43 440.746C440.788 433.076 452.918 421.358 456.713 406.191C465.084 372.435 429.08 367.797 415.083 346.163Z" stroke="#0085FF" stroke-width="0.37" stroke-miterlimit="10"/>
<path d="M411.385 341.451C405.049 331.205 404.832 315.953 414.131 308.431C424.238 300.259 439.174 304.958 450.401 311.437C461.627 317.916 473.432 326.162 486.177 324.15C495.922 322.579 503.872 315.008 508.835 306.308C513.797 297.608 516.291 287.755 519.338 278.196C527.77 251.937 541.274 226.377 563.076 209.984C584.879 193.59 616.077 188.277 639.434 202.265C653.624 210.769 663.429 225.089 671.716 239.568C678.281 251.029 684.364 264.306 680.98 277.116C677.029 292.099 661.309 300.823 646.348 303.56C631.388 306.296 615.824 304.664 600.888 307.744C584.316 311.214 569.351 320.207 558.354 333.304C555.945 336.236 553.536 339.623 553.416 343.464C553.018 352.593 563.823 357.268 572.568 359.33L621.558 370.889C646.457 376.791 674.559 385.16 685.653 408.597C691.857 421.689 691.267 437.347 686.581 451.078C681.895 464.808 673.451 476.846 664.284 488.012C654.142 500.283 642.325 512.21 627.256 516.996C612.187 521.781 593.251 517.266 585.734 503.117C580.109 492.503 581.988 479.607 580.771 467.606C579.181 451.924 570.243 435.555 555.259 431.579C540.804 427.739 525.698 436.684 515.737 448.096C492.85 474.257 486.96 513.511 460.881 536.322C452.897 543.309 443.437 548.323 433.237 550.971C423.038 553.619 412.376 553.831 402.083 551.59C391.79 549.348 382.145 544.714 373.901 538.049C365.656 531.384 359.034 522.869 354.553 513.167C349.169 501.51 347.266 487.08 353.879 476.085C359.082 467.422 368.526 462.452 377.777 458.636C392.618 452.501 408.253 448.194 422.346 440.463C436.44 432.733 449.341 420.83 453.593 405.05C463.037 369.981 425.526 364.336 411.385 341.451Z" stroke="#0085FF" stroke-width="0.39" stroke-miterlimit="10"/>
<path d="M407.675 336.69C401.278 325.892 401.339 309.977 411.192 302.333C421.889 294.013 437.379 299.216 448.955 306.198C460.531 313.18 472.685 322.064 486.008 320.174C496.211 318.726 504.643 310.996 509.979 302.038C515.315 293.08 518.122 282.834 521.482 272.932C530.734 245.716 545.369 219.346 568.461 202.682C591.552 186.019 624.148 181.111 648.239 196.179C662.863 205.333 672.801 220.463 681.16 235.727C687.785 247.814 693.868 261.79 690.098 275.079C685.677 290.614 669.163 299.388 653.479 301.891C637.796 304.394 621.558 302.455 605.899 305.363C588.554 308.637 572.774 317.704 561.053 331.132C558.439 334.15 555.957 337.623 555.704 341.635C555.102 351.145 566.292 356.225 575.363 358.557L626.172 371.649C652.022 378.3 681.124 387.601 692.266 412.265C698.494 426.045 697.567 442.365 692.411 456.587C687.255 470.809 678.221 483.214 668.44 494.626C657.599 507.265 645.071 519.413 629.255 524.076C613.439 528.738 593.805 523.658 586.24 508.75C580.579 497.571 582.783 484.208 581.747 471.631C580.398 455.25 571.4 437.997 555.861 433.592C540.804 429.285 524.94 438.304 514.315 450.01C489.983 476.834 482.996 517.634 455.4 540.899C446.941 548.015 436.982 553.045 426.301 555.597C415.619 558.148 404.504 558.152 393.821 555.608C383.138 553.064 373.176 548.041 364.712 540.931C356.248 533.82 349.511 524.814 345.025 514.615C339.641 502.344 337.942 487.264 345.025 475.938C350.626 467.005 360.576 462.023 370.321 458.219C385.98 452.084 402.314 447.948 417.179 440.169C432.043 432.389 445.715 420.205 450.461 403.872C460.989 367.527 421.985 360.888 407.675 336.69Z" stroke="#0085FF" stroke-width="0.4" stroke-miterlimit="10"/>
<path d="M403.977 332.003C397.508 320.641 397.857 304.075 408.241 296.283C419.528 287.816 435.573 293.522 447.498 301.007C459.423 308.493 471.926 317.966 485.851 316.248C496.488 314.935 505.413 307.045 511.147 297.842C516.881 288.639 519.977 278 523.651 267.742C533.769 239.593 549.489 212.389 573.785 195.467C598.081 178.546 632.17 174.043 656.985 190.179C672.042 199.995 682.136 215.947 690.568 231.973C697.241 244.685 703.336 259.349 699.169 273.116C694.278 289.215 676.932 298.05 660.55 300.357C644.168 302.664 627.364 300.357 611.03 303.057C592.907 306.156 576.313 315.318 563.871 329.095C561.089 332.187 558.439 335.758 558.101 339.93C557.318 349.82 568.87 355.317 578.278 357.919L630.954 372.496C657.755 379.859 687.894 390.129 699.06 416.02C705.288 430.488 704.035 447.458 698.41 462.171C692.784 476.883 683.16 489.645 672.776 501.363C661.285 514.333 647.986 526.751 631.436 531.328C614.885 535.905 594.516 530.248 586.867 514.579C581.169 502.836 583.711 488.908 582.855 475.84C581.747 458.747 572.677 440.623 556.572 435.703C540.972 430.942 524.289 440.046 513.026 452.035C487.2 479.509 479.238 521.867 450.039 545.587C441.1 552.848 430.634 557.908 419.459 560.369C408.283 562.831 396.7 562.628 385.614 559.777C374.528 556.926 364.239 551.504 355.55 543.934C346.86 536.364 340.006 526.851 335.521 516.137C330.137 503.265 328.631 487.534 336.232 475.865C342.254 466.662 352.662 461.655 362.853 457.888C379.211 451.826 396.34 447.777 411.963 439.961C427.586 432.144 442.077 419.689 447.269 402.78C458.941 365.073 418.444 357.428 403.977 332.003Z" stroke="#0085FF" stroke-width="0.42" stroke-miterlimit="10"/>
<path d="M400.002 325.647C393.509 313.56 394.304 296.197 405.386 288.344C417.432 279.755 434.067 286.172 446.341 294.332C458.616 302.492 471.493 312.738 486.092 311.315C497.271 310.223 506.823 302.185 513.038 292.663C519.254 283.141 522.783 272.11 526.903 261.471C538.214 232.255 555.367 204.18 581.253 187.111C607.139 170.043 642.951 166.251 668.512 183.773C684.039 194.437 694.194 211.395 702.626 228.426C709.287 241.924 715.298 257.434 710.576 271.742C705.059 288.479 686.653 297.265 669.44 299.253C652.226 301.241 634.676 298.345 617.511 300.774C598.455 303.57 580.857 312.753 567.497 326.874C564.522 330.04 561.643 333.709 561.197 338.065C560.113 348.409 572.038 354.471 581.856 357.452L636.663 374.104C664.537 382.57 695.844 394.068 706.866 421.493C713.021 436.795 711.275 454.55 705.011 469.803C698.747 485.055 688.327 498.172 677.161 510.173C664.79 523.45 650.552 536.101 633.11 540.457C615.668 544.813 594.467 538.347 586.915 521.744C581.241 509.29 584.253 494.749 583.699 481.055C582.964 463.14 573.929 443.912 557.198 438.328C540.972 432.929 523.265 442.01 511.171 454.28C483.466 482.368 473.998 526.53 442.824 550.593C433.277 557.959 422.187 562.979 410.422 565.26C398.656 567.542 386.532 567.023 374.995 563.745C363.459 560.466 352.822 554.517 343.914 546.361C335.007 538.205 328.069 528.063 323.644 516.726C318.32 503.105 317.151 486.589 325.403 474.576C331.907 465.091 342.977 460.121 353.746 456.44C371.032 450.538 389.076 446.746 405.639 438.979C422.202 431.211 437.656 418.536 443.559 400.94C456.713 361.759 414.505 352.642 400.002 325.647Z" stroke="#0085FF" stroke-width="0.44" stroke-miterlimit="10"/>
<path d="M396.026 319.352C389.522 306.566 390.75 288.454 402.519 280.478C415.312 271.803 432.573 278.896 445.245 287.73C457.917 296.565 471.119 307.584 486.441 306.443C498.15 305.572 508.328 297.4 515.05 287.595C521.771 277.791 525.722 266.343 530.276 255.311C542.779 225.027 561.33 196.081 588.842 178.853C616.354 161.625 653.889 158.496 680.172 177.478C696.157 189.001 706.384 206.928 714.804 225.003C721.453 239.261 727.379 255.679 722.103 270.478C715.948 287.853 696.506 296.59 678.45 298.259C660.393 299.927 642.12 296.467 624.112 298.59C604.099 301.017 585.45 310.165 571.111 324.592C567.919 327.819 564.835 331.598 564.257 336.138C562.883 346.936 575.242 353.563 585.409 356.912L642.337 375.65C671.247 385.184 703.77 397.958 714.611 426.904C720.634 443.053 718.454 461.569 711.551 477.386C704.649 493.203 693.483 506.639 681.437 518.922C668.187 532.506 653.021 545.39 634.676 549.537C616.33 553.685 594.311 546.384 586.794 528.837C581.157 515.683 584.638 500.614 584.385 486.221C584.048 467.459 575.038 447.139 557.668 440.905C540.804 434.856 522.109 443.936 509.172 456.464C479.491 485.178 468.626 531.119 435.452 555.538C425.298 563.013 413.585 567.997 401.228 570.1C388.871 572.203 376.205 571.369 364.216 567.663C352.228 563.957 341.242 557.479 332.117 548.735C322.992 539.991 315.974 529.216 311.61 517.253C306.37 502.872 305.527 485.57 314.429 473.202C321.464 463.446 333.16 458.477 344.543 454.931C362.756 449.163 381.716 445.642 399.219 437.911C416.721 430.181 433.175 417.321 439.752 399.087C454.496 358.459 410.566 347.943 396.026 319.352Z" stroke="#0085FF" stroke-width="0.46" stroke-miterlimit="10"/>
<path d="M392.051 313.033C385.535 299.535 387.233 280.65 399.652 272.539C413.192 263.766 431.067 271.545 444.125 281.055C457.182 290.565 470.722 302.357 486.731 301.498C498.981 300.848 509.786 292.541 517.013 282.454C524.241 272.368 528.601 260.49 533.6 249.078C547.308 217.726 567.328 187.921 596.371 170.546C625.413 153.17 664.682 150.716 691.772 171.11C708.227 183.503 718.526 202.498 726.922 221.506C733.583 236.562 739.413 253.79 733.583 269.202C726.777 287.203 706.287 295.903 687.4 297.228C668.512 298.553 649.504 294.565 630.653 296.394C609.72 298.486 590.07 307.627 574.809 322.371C571.4 325.671 568.099 329.549 567.401 334.285C565.738 345.513 578.507 352.691 589.083 356.434L648.107 377.294C678.137 387.884 711.768 401.946 722.537 432.414C728.56 449.409 725.802 468.698 718.261 485.055C710.72 501.412 698.735 515.204 685.978 527.769C671.873 541.66 655.744 554.765 636.495 558.704C617.246 562.643 594.419 554.519 586.939 536.04C581.338 522.174 585.301 506.48 585.325 491.473C585.325 471.84 576.399 450.464 558.39 443.617C540.936 436.93 521.181 446.01 507.401 458.796C475.817 488.123 463.482 535.856 428.333 560.643C417.562 568.219 405.217 573.158 392.263 575.073C379.309 576.987 366.096 575.827 353.655 571.681C341.214 567.535 329.881 560.517 320.542 551.173C311.204 541.83 304.111 530.415 299.817 517.818C294.65 502.688 294.144 484.601 303.708 471.889C311.249 461.851 323.572 456.968 335.485 453.483C354.625 447.863 374.501 444.599 392.931 436.917C411.361 429.236 428.827 416.143 436.054 397.246C452.268 355.097 406.627 343.206 392.051 313.033Z" stroke="#0085FF" stroke-width="0.48" stroke-miterlimit="10"/>
<path d="M388.076 306.701C381.536 292.492 383.643 272.834 396.797 264.674C411.084 255.802 429.574 264.281 442.993 274.49C456.412 284.7 470.312 297.24 487.032 296.676C499.824 296.234 511.244 287.792 518.977 277.411C526.71 267.03 531.492 254.747 536.925 242.955C551.826 210.536 573.291 179.859 603.911 162.312C634.531 144.765 675.523 143.022 703.384 164.84C720.248 178.092 730.656 198.106 739.052 218.094C745.689 233.911 751.435 251.998 745.075 267.926C737.63 286.553 716.093 295.216 696.374 296.222C676.655 297.228 656.912 292.676 637.217 294.197C615.348 295.966 594.679 305.101 578.471 320.162C574.857 323.536 571.34 327.524 570.52 332.433C568.557 344.053 581.807 351.845 592.648 355.931L653.816 378.84C684.931 390.485 719.718 405.836 730.355 437.813C736.281 455.667 733.065 475.717 724.874 492.626C716.683 509.535 703.927 523.671 690.387 536.506C675.402 550.716 658.322 564.078 638.181 567.772C618.041 571.465 594.383 562.569 586.951 543.132C581.374 528.567 585.806 512.272 586.132 496.639C586.541 476.208 577.615 453.691 558.969 446.133C540.9 438.77 520.133 447.875 505.51 460.931C471.999 490.872 458.206 540.408 421.069 565.514C409.7 573.206 396.739 578.118 383.198 579.864C369.657 581.611 355.903 580.145 343.01 575.583C330.117 571.02 318.434 563.483 308.873 553.56C299.312 543.638 292.131 531.599 287.892 518.382C282.785 502.504 282.616 483.632 292.831 470.527C300.902 460.219 313.839 455.372 326.33 451.974C346.398 446.501 367.189 443.494 386.559 435.85C405.928 428.205 424.394 414.99 432.332 395.357C450.051 351.845 402.676 338.47 388.076 306.701Z" stroke="#0085FF" stroke-width="0.5" stroke-miterlimit="10"/>
<path d="M384.089 300.381C377.548 285.46 380.09 265.03 393.931 256.772C408.964 247.802 428.068 256.968 441.86 267.815C455.653 278.662 469.903 292.025 487.333 291.743C500.655 291.534 512.701 282.945 520.94 272.282C529.18 261.618 534.383 248.967 540.214 236.697C556.319 203.222 579.218 171.662 611.428 153.98C643.638 136.298 686.352 135.218 714.96 158.459C732.342 172.558 742.774 193.614 751.158 214.573C757.783 231.163 763.444 250.158 756.53 266.576C748.448 285.841 725.862 294.455 705.312 295.142C684.762 295.829 664.284 290.712 643.746 291.939C620.942 293.37 599.255 302.497 582.108 317.879C578.29 321.328 574.544 325.401 573.604 330.506C571.364 342.642 584.951 350.973 596.238 355.428L659.526 380.423C691.712 393.135 727.681 409.762 738.173 443.261C744.027 461.962 740.317 482.785 731.487 500.234C722.658 517.683 709.118 532.138 694.784 545.292C678.92 559.808 660.899 573.404 639.856 576.876C618.812 580.349 594.347 570.643 586.951 550.274C581.398 534.997 586.312 518.112 586.951 501.829C587.758 480.564 578.856 456.943 559.583 448.734C540.9 440.782 519.097 449.826 503.643 463.152C468.204 493.755 452.918 545.046 413.842 570.508C401.865 578.302 388.281 583.173 374.152 584.738C360.022 586.304 345.728 584.523 332.386 579.535C319.043 574.546 307.012 566.484 297.232 555.979C287.452 545.473 280.187 532.808 276.003 518.971C270.98 502.344 271.185 482.687 282.026 469.275C290.603 458.685 304.166 453.875 317.236 450.562C338.231 445.249 359.938 442.5 380.247 434.905C400.556 427.309 419.997 413.824 428.646 393.602C447.835 348.532 398.713 333.721 384.089 300.381Z" stroke="#0085FF" stroke-width="0.52" stroke-miterlimit="10"/>
<path d="M379.982 292.025C373.501 276.233 376.693 254.906 391.401 246.624C407.374 237.617 427.153 247.728 441.318 259.447C455.484 271.165 470.071 285.546 488.297 285.706C502.257 285.841 515.086 277.116 524 266.22C532.914 255.324 538.66 242.096 545.116 229.494C562.835 194.854 587.625 162.422 621.799 144.74C655.973 127.058 700.747 127.071 730.114 152.164C748.038 167.355 758.373 189.725 766.612 211.898C773.141 229.457 778.586 249.434 770.925 266.502C761.963 286.467 738.1 294.897 716.55 295.068C695.001 295.24 673.692 289.338 652.154 290.074C628.232 290.969 605.285 299.958 586.939 315.622C582.855 319.131 578.832 323.291 577.712 328.616C575.062 341.255 589.071 350.348 600.779 355.317L666.428 383.159C699.807 397.332 737.052 415.689 747.135 451.053C752.796 470.797 748.339 492.503 738.703 510.541C729.066 528.579 714.467 543.414 699.12 556.765C682.136 571.49 662.983 585.306 640.783 588.386C618.583 591.466 593.287 580.656 586.059 559.121C580.639 542.973 586.216 525.426 587.264 508.394C588.637 486.135 579.928 461.176 559.944 452.059C540.575 443.237 517.531 452.133 501.005 465.68C463.109 496.749 445.835 550.09 404.205 575.723C391.459 583.568 377.106 588.306 362.266 589.568C347.426 590.831 332.5 588.583 318.653 583C304.806 577.417 292.413 568.651 282.441 557.384C272.468 546.118 265.186 532.657 261.163 518.051C256.345 500.504 256.995 479.926 268.727 466.158C277.991 455.299 292.313 450.624 306.069 447.495C328.197 442.476 351 440.132 372.465 432.77C393.93 425.407 414.625 411.738 424.201 390.792C445.51 344.151 394.473 327.34 379.982 292.025Z" stroke="#0085FF" stroke-width="0.55" stroke-miterlimit="10"/>
<path d="M375.826 283.681C369.417 267.005 373.248 244.771 388.823 236.464C405.687 227.445 426.165 238.501 440.728 251.09C455.291 263.68 470.18 279.067 489.272 279.681C503.86 280.159 517.483 271.398 527.048 260.171C536.612 248.943 542.948 235.298 549.995 222.266C569.268 186.473 595.997 153.158 632.158 135.488C668.32 117.818 715.117 118.923 745.255 145.869C763.553 162.238 773.9 185.823 782.007 209.21C788.415 227.727 793.643 248.759 785.235 266.416C775.406 287.08 750.303 295.314 727.717 294.982C705.131 294.651 683.027 287.951 660.49 288.209C635.466 288.583 611.278 297.438 591.745 313.376C587.384 316.947 583.084 321.205 581.795 326.751C578.724 339.905 593.166 349.746 605.296 355.231L673.294 385.908C707.878 401.529 746.388 421.628 756.169 458.857C761.638 479.631 756.494 502.234 745.942 520.861C735.39 539.488 719.827 554.63 703.469 568.226C685.4 583.27 664.923 597.197 641.747 599.884C618.571 602.571 592.251 590.656 585.192 567.98C579.892 550.961 586.132 532.739 587.601 514.959C589.565 491.718 581.024 465.397 560.342 455.385C540.298 445.691 515.99 454.44 498.391 468.207C458.038 499.78 438.74 555.145 394.605 580.95C381.096 588.848 365.979 593.458 350.432 594.422C334.886 595.386 319.331 592.678 304.982 586.508C290.632 580.339 277.876 570.875 267.709 558.855C257.542 546.836 250.24 532.585 246.371 517.217C241.721 498.737 242.889 477.239 255.489 463.127C265.415 451.998 280.508 447.458 294.987 444.513C318.235 439.801 342.134 437.948 364.756 430.708C387.378 423.469 409.325 409.738 419.829 388.068C443.185 339.77 390.208 320.959 375.826 283.681Z" stroke="#0085FF" stroke-width="0.57" stroke-miterlimit="10"/>
<path d="M371.766 275.337C365.43 257.778 369.899 234.648 386.342 226.316C404.193 217.272 425.298 229.261 440.222 242.734C455.147 256.207 470.397 272.601 490.308 273.656C505.534 274.478 519.941 265.631 530.179 254.109C540.418 242.587 547.308 228.5 554.933 215.039C575.881 178.092 604.453 143.869 642.578 126.236C680.703 108.603 729.56 110.763 760.457 139.574C779.212 157.06 789.523 181.921 797.486 206.523C803.798 225.997 808.809 248.072 799.654 266.331C788.945 287.694 762.505 295.78 738.98 294.884C715.454 293.989 692.459 286.565 668.922 286.295C642.772 286.119 617.309 294.818 596.551 311.02C591.926 314.702 587.348 319.009 585.879 324.776C582.398 338.445 597.262 349.035 609.826 355.023L680.173 388.583C715.948 405.664 755.735 427.494 765.167 466.588C770.419 488.405 764.577 511.891 753.121 531.107C741.666 550.323 725.151 565.846 707.805 579.65C688.532 594.964 666.971 609.1 642.674 611.345C618.378 613.591 591.179 600.621 584.301 576.766C579.133 558.888 586.035 539.954 587.975 521.462C590.528 497.228 582.169 469.558 560.788 458.649C540.057 448.084 514.484 456.686 495.813 470.674C453.015 502.75 431.682 560.14 385.053 586.104C370.78 594.059 354.895 598.544 338.639 599.211C322.382 599.878 306.195 596.708 291.34 589.948C276.485 583.189 263.365 573.023 253.005 560.245C242.644 547.466 235.324 532.421 231.615 516.284C227.146 496.897 228.832 474.466 242.275 460.011C252.887 448.611 268.776 444.194 283.917 441.445C308.298 437.04 333.305 435.629 357.059 428.573C380.813 421.518 404.097 407.713 415.48 385.258C440.873 335.378 385.932 314.603 371.766 275.337Z" stroke="#0085FF" stroke-width="0.6" stroke-miterlimit="10"/>
<path d="M367.659 266.981C361.395 248.575 366.454 224.524 383.8 216.168C402.603 207.088 424.382 220.021 439.68 234.378C454.978 248.734 470.553 266.122 491.296 267.643C507.16 268.797 522.362 259.864 533.251 248.01C544.14 236.157 551.621 221.641 559.836 207.775C582.398 169.662 612.837 134.58 652.949 116.972C693.061 99.3635 743.955 102.603 775.611 133.267C794.884 151.882 805.099 178.018 812.952 203.836C819.144 224.267 823.938 247.385 814.036 266.245C802.46 288.332 774.731 296.148 750.194 294.786C725.657 293.424 701.855 285.166 677.306 284.454C650.059 283.745 623.358 292.302 601.418 308.775C596.515 312.456 591.649 316.91 590.01 322.886C586.108 337.071 601.406 348.421 614.391 354.925L687.087 391.344C724.067 409.873 765.131 433.445 774.201 474.392C779.26 497.252 772.708 521.622 760.433 541.439C748.158 561.256 730.572 577.024 712.25 591.135C691.905 606.719 669.09 620.965 643.71 622.867C618.33 624.769 590.227 610.596 583.482 585.638C578.435 566.876 585.999 547.329 588.396 528.027C591.516 502.823 583.349 473.791 561.257 461.986C539.852 450.55 513.014 459.004 493.283 473.214C448.016 505.792 424.623 565.244 375.525 591.344C360.484 599.355 343.828 603.717 326.859 604.087C309.889 604.458 293.066 600.828 277.701 593.48C262.337 586.133 248.848 575.267 238.287 561.731C227.727 548.195 220.38 532.356 216.823 515.449C212.546 495.142 214.739 471.79 229.037 456.98C240.324 445.31 256.935 441.028 272.823 438.463C298.336 434.365 324.427 433.396 349.349 426.524C374.272 419.652 398.809 405.664 411.12 382.534C438.536 330.997 381.668 308.186 367.659 266.981Z" stroke="#0085FF" stroke-width="0.62" stroke-miterlimit="10"/>
<path d="M363.551 258.637C357.348 239.323 363.106 214.462 381.27 206.02C401.001 196.915 423.43 210.781 439.09 226.021C454.749 241.262 470.662 259.655 492.247 261.606C508.738 263.103 524.771 254.084 536.286 241.973C547.802 229.862 555.885 214.855 564.678 200.56C588.866 161.294 621.197 125.316 663.284 107.695C705.372 90.0745 758.313 94.4184 790.728 126.936C810.41 146.691 820.625 174.092 828.31 201.124C834.393 222.512 838.983 246.673 828.31 266.159C815.843 288.909 786.837 296.565 761.324 294.7C735.811 292.835 711.166 283.792 685.617 282.577C657.244 281.328 629.271 289.743 606.115 306.492C600.948 310.26 595.804 314.787 593.985 320.984C589.673 335.709 605.393 347.783 618.8 354.802L693.856 394.068C732.029 414.057 774.37 439.372 783.079 482.184C787.897 506.075 780.67 531.328 767.54 551.734C754.41 572.14 735.872 588.239 716.478 602.608C695.013 618.45 671.006 632.868 644.529 634.377C618.053 635.886 589.035 620.646 582.506 594.485C577.603 574.852 585.83 554.642 588.661 534.592C592.371 508.394 584.385 478.024 561.595 465.312C539.503 453.041 511.412 461.312 490.597 475.742C442.884 508.873 417.48 570.226 365.864 596.571C350.06 604.617 332.645 608.834 314.978 608.895C297.31 608.956 279.868 604.858 264.011 596.922C248.154 588.985 234.311 577.425 223.562 563.141C212.813 548.858 205.448 532.238 202.042 514.579C197.947 493.35 200.645 469.067 215.811 453.912C227.772 441.973 245.142 437.813 261.729 435.506C288.374 431.715 315.561 431.187 341.64 424.463C367.719 417.738 393.509 403.664 406.687 379.81C436.211 326.616 377.404 301.805 363.551 258.637Z" stroke="#0085FF" stroke-width="0.65" stroke-miterlimit="10"/>
<path d="M359.528 247.765C353.505 227.383 360.203 201.431 379.44 193.136C400.339 184.129 423.491 199.271 439.523 215.603C455.556 231.936 471.746 251.679 494.283 254.293C511.533 256.305 528.505 247.286 540.912 234.93C553.319 222.573 562.125 207.051 571.713 192.314C598.033 151.821 632.821 115.009 677.342 97.6701C721.863 80.3316 777.2 86.2829 810.314 121.193C830.43 142.397 840.428 171.368 847.788 199.885C853.618 222.45 857.798 247.875 846.15 267.962C832.526 291.461 801.942 298.713 775.273 296.074C748.604 293.436 723.019 283.325 696.302 281.35C666.609 279.288 637.089 287.362 612.403 304.296C606.898 308.1 601.406 312.701 599.334 319.143C594.443 334.433 610.608 347.513 624.461 355.219L702.059 398.338C741.533 420.266 785.175 447.899 793.257 492.969C797.738 518.124 789.499 544.384 775.189 565.366C760.879 586.349 741.027 602.792 720.345 617.271C697.458 633.297 671.945 647.764 644.192 648.647C616.439 649.531 586.445 632.794 580.253 605.222C575.616 584.533 584.746 563.575 588.228 542.641C592.781 515.302 585.18 483.276 561.643 469.361C538.828 455.863 509.184 463.839 487.02 478.404C436.211 511.793 408.048 575.465 353.312 601.651C336.554 609.663 318.205 613.622 299.696 613.22C281.188 612.818 263.022 608.065 246.614 599.332C230.206 590.6 216 578.124 205.105 562.877C194.21 547.631 186.921 530.026 183.805 511.437C180.071 489.092 183.516 463.741 199.778 448.28C212.607 436.083 230.916 432.193 248.346 430.144C276.34 426.88 304.816 427.052 332.305 420.72C359.793 414.388 387.161 400.314 401.628 375.674C433.898 320.886 372.935 293.35 359.528 247.765Z" stroke="#0085FF" stroke-width="0.68" stroke-miterlimit="10"/>
<path d="M355.517 236.905C349.723 215.444 357.288 188.461 377.609 180.252C399.664 171.331 423.527 187.7 439.909 205.198C456.291 222.696 472.77 243.691 496.283 246.918C514.267 249.434 532.227 240.415 545.49 227.788C558.752 215.162 568.316 199.259 578.687 184.031C607.103 142.335 644.445 104.664 691.351 87.5958C738.257 70.5273 796.04 78.0983 829.876 115.401C850.414 138.065 860.208 168.594 867.218 198.584C872.783 222.328 876.566 249.016 863.918 269.754C849.126 293.988 816.939 300.848 789.15 297.436C761.361 294.025 734.788 282.859 706.902 280.245C675.903 277.369 644.848 285.098 618.643 302.21C612.801 306.05 606.935 310.799 604.634 317.425C599.153 333.291 615.752 347.366 630.062 355.759L710.214 402.719C750.977 426.61 796.04 456.562 803.376 503.878C807.471 530.297 798.244 557.55 782.826 579.195C767.407 600.841 746.219 617.504 724.26 632.156C699.964 648.365 672.945 662.832 643.903 663.127C614.861 663.421 583.879 645.15 578.049 616.167C573.676 594.423 583.711 572.729 587.842 550.936C593.227 522.468 586.035 488.785 561.739 473.631C538.19 458.98 507.016 466.588 483.502 481.276C429.586 514.958 398.713 580.877 340.809 606.915C323.098 614.895 303.816 618.598 284.469 617.734C265.121 616.869 246.232 611.461 229.275 601.932C212.318 592.402 197.753 579.009 186.716 562.798C175.68 546.587 168.471 527.997 165.652 508.48C162.256 485.03 166.447 458.599 183.817 442.819C197.549 430.389 216.75 426.757 235.024 425.039C264.379 422.278 294.156 423.149 323.054 417.198C351.951 411.247 380.873 397.185 396.593 371.797C431.585 315.155 368.478 284.884 355.517 236.905Z" stroke="#0085FF" stroke-width="0.71" stroke-miterlimit="10"/>
<path d="M351.506 226.034C345.904 203.492 354.385 175.491 375.826 167.355C399.062 158.533 423.635 176.141 440.367 194.78C457.098 213.419 473.854 235.703 498.343 239.654C517.062 242.673 536.01 233.654 550.139 220.757C564.269 207.861 574.592 191.308 585.734 175.736C616.342 132.789 656.033 94.308 705.432 77.5708C754.832 60.8336 814.88 69.9262 849.403 109.683C870.362 133.795 879.938 165.895 886.648 197.369C891.96 222.291 895.345 250.244 881.685 271.607C865.725 296.59 832.009 303.044 803.027 298.872C774.045 294.7 746.581 282.43 717.502 279.031C685.189 275.343 652.59 282.731 624.859 300.026C618.679 303.903 612.464 308.615 609.91 315.61C603.887 332.052 620.896 347.108 635.652 356.189L718.345 406.989C760.409 432.831 806.821 465.103 813.506 514.677C817.229 542.347 807.014 570.619 790.451 592.865C773.888 615.112 751.411 632.07 728.175 646.856C702.457 663.25 673.969 677.803 643.602 677.422C613.235 677.042 581.289 657.311 575.784 626.916C571.677 604.117 582.614 581.687 587.397 559.023C593.624 529.401 586.83 494.086 561.775 477.766C537.503 461.95 504.787 469.177 479.865 484.037C422.852 518.026 389.148 586.166 328.185 612.093C309.521 620.024 289.312 623.456 269.132 622.121C248.952 620.787 229.347 614.722 211.847 604.4C194.347 594.077 179.423 579.777 168.241 562.613C157.058 545.449 149.919 525.886 147.379 505.449C144.332 480.908 149.27 453.372 167.748 437.285C182.312 424.598 202.476 421.223 221.605 419.849C252.309 417.616 283.387 419.186 313.682 413.603C343.977 408.02 374.501 393.97 391.437 367.784C429.261 309.437 364.021 276.429 351.506 226.034Z" stroke="#0085FF" stroke-width="0.74" stroke-miterlimit="10"/>
<path d="M347.482 215.211C342.086 191.59 351.469 162.557 373.983 154.52C398.375 145.783 423.659 164.656 440.74 184.424C457.821 204.192 474.866 227.776 500.318 232.39C519.796 235.911 539.72 226.88 554.692 213.726C569.665 200.572 580.759 183.565 592.697 167.49C625.449 123.316 667.573 84.0497 719.417 67.5211C771.262 50.9925 833.767 61.7907 868.989 103.891C890.382 129.463 899.742 163.122 906.126 196.081C911.173 222.168 914.16 251.385 899.513 273.386C882.372 299.154 847.09 305.155 816.951 300.222C786.813 295.289 758.409 281.939 728.163 277.803C694.543 273.308 660.411 280.35 631.158 297.817C624.63 301.744 618.053 306.591 615.258 313.769C608.633 330.788 626.099 346.838 641.313 356.593L726.56 411.247C769.925 439.052 817.686 473.643 823.661 525.475C827.01 554.397 815.807 583.662 798.1 606.535C780.393 629.407 756.627 646.623 732.102 661.593C704.963 678.171 674.945 692.773 643.313 691.767C611.681 690.761 578.748 669.557 573.628 637.776C569.798 613.922 581.651 590.742 587.059 567.207C594.142 536.457 587.746 499.485 561.944 481.963C536.937 464.98 502.679 471.889 476.419 486.871C416.299 521.168 379.837 591.528 315.754 617.345C276.702 633.076 230.519 629.125 194.586 606.989C158.654 584.852 133.755 545.034 129.299 502.479C126.6 476.809 132.286 448.219 151.86 431.813C167.303 418.879 188.383 415.775 208.354 414.72C240.42 413.014 272.799 415.272 304.491 410.069C336.183 404.866 368.333 390.829 386.474 363.87C426.948 303.707 359.552 267.975 347.482 215.211Z" stroke="#0085FF" stroke-width="0.77" stroke-miterlimit="10"/>
<path d="M343.471 204.302C338.267 179.614 348.566 149.551 372.092 141.599C397.653 133.01 423.647 153.072 441.089 173.981C458.532 194.891 475.805 219.751 502.306 225.027C522.518 229.064 543.43 220.033 559.258 206.621C575.086 193.21 586.963 175.687 599.659 159.171C634.592 113.769 679.161 73.6319 733.366 57.41C787.572 41.1882 852.546 53.5816 888.479 98.0751C910.294 125.071 919.436 160.336 925.495 194.768C930.313 222.021 932.867 252.514 917.22 275.153C898.91 301.633 862.063 307.265 830.768 301.572C799.473 295.878 770.154 281.473 738.727 276.564C703.796 271.25 668.122 277.951 637.35 295.608C630.484 299.572 623.546 304.492 620.486 311.916C613.259 329.524 631.171 346.556 646.842 356.999L734.631 415.505C779.284 445.261 828.407 482.159 833.719 536.249C836.67 566.434 824.48 596.706 805.628 620.192C786.777 643.678 761.758 661.176 735.992 676.318C707.432 693.068 675.908 707.719 642.987 706.075C610.066 704.43 576.146 681.766 571.388 648.537C567.774 623.628 580.579 599.712 586.638 575.306C594.564 543.402 588.553 504.787 562.004 486.061C536.262 467.913 500.463 474.466 472.866 489.559C409.65 524.15 370.417 596.755 303.226 622.438C262.271 638.095 214.257 633.138 177.228 609.419C140.2 585.699 115 543.758 111.11 499.375C108.7 472.576 115.193 442.93 135.875 426.193C152.185 413.002 174.205 410.167 195.008 409.443C228.435 408.216 262.102 411.223 295.216 406.388C328.33 401.553 361.997 387.54 381.403 359.759C424.635 297.977 355.095 259.52 343.471 204.302Z" stroke="#0085FF" stroke-width="0.8" stroke-miterlimit="10"/>
<path d="M339.894 190.338C335.075 164.337 346.627 133.132 371.465 125.426C398.46 117.046 425.213 138.814 442.896 161.22C460.579 183.626 478.13 210.069 505.666 216.303C526.734 221.064 548.874 212.155 565.787 198.523C582.699 184.89 595.576 166.864 609.308 149.906C647.011 103.351 694.724 62.4287 751.977 46.8327C809.23 31.2367 876.903 45.9738 913.389 93.5349C935.553 122.408 944.226 159.551 949.695 195.774C954.019 224.451 955.947 256.44 938.974 279.742C919.135 306.983 880.396 311.916 847.764 305.118C815.133 298.32 784.777 282.43 751.989 276.503C715.545 270.015 678.018 276.081 645.336 293.743C638.037 297.719 630.653 302.688 627.268 310.382C619.269 328.629 637.579 346.949 653.768 358.299L744.22 421.886C790.234 454.231 840.73 494.185 844.91 550.973C847.234 582.668 833.695 614.044 813.362 638.095C793.029 662.146 766.384 679.815 738.919 695.006C708.588 711.805 675.198 726.309 640.771 723.72C606.344 721.131 571.388 696.479 567.292 661.569C564.184 635.383 578.133 610.67 585.132 585.27C594.239 552.078 588.938 511.474 561.607 491.154C535.106 471.521 497.451 477.386 468.192 492.454C401.098 527.021 358.155 602.007 287.145 627.125C243.853 642.451 193.683 635.972 155.51 610.155C117.337 584.337 92.0171 539.746 89.078 493.154C87.2952 465.042 94.7876 434.144 116.879 417.174C134.298 403.799 157.425 401.406 179.24 401.222C214.269 400.878 249.466 404.903 284.254 400.682C319.042 396.461 354.686 382.706 375.717 354.164C422.503 290.59 350.65 248.464 339.894 190.338Z" stroke="#0085FF" stroke-width="0.84" stroke-miterlimit="10"/>
<path d="M336.316 176.374C331.883 149.072 344.688 116.714 370.851 109.254C399.267 101.143 426.683 124.543 444.703 148.348C462.723 172.153 480.419 200.29 509.075 207.468C530.986 212.953 554.343 204.18 572.351 190.289C590.36 176.399 604.236 157.895 618.992 140.507C659.502 92.725 710.347 51.0784 770.587 36.2063C830.828 21.3343 901.235 38.3291 938.3 88.9702C960.801 119.647 969.004 158.754 973.871 196.768C977.737 226.856 979.002 260.367 960.717 284.319C939.336 312.321 898.705 316.542 864.749 308.652C830.792 300.762 799.401 283.411 765.251 276.417C727.29 268.761 687.908 274.206 653.323 291.89C645.601 295.866 637.76 300.885 634.049 308.848C625.268 327.745 643.987 347.341 660.55 359.6L753.663 428.316C801.015 463.25 852.896 506.247 855.943 565.747C857.642 598.952 842.693 631.432 820.926 656.145C799.16 680.858 770.78 698.675 741.762 713.879C709.648 730.702 674.39 745.058 638.446 741.537C602.502 738.015 566.533 711.375 563.016 674.76C560.378 647.298 575.568 621.8 583.494 595.405C593.793 560.912 589.191 518.321 561.077 496.418C533.841 475.19 494.319 480.466 463.362 495.522C392.401 530.052 345.76 607.431 270.908 631.996C225.255 646.893 172.988 638.917 133.707 610.989C94.4262 583.061 68.9496 535.831 66.95 487.055C65.7454 457.606 74.3099 425.469 97.799 408.265C116.325 394.694 140.561 392.755 163.376 393.062C200.019 393.541 236.734 398.559 273.208 395.025C309.683 391.491 347.277 377.932 369.935 348.593C420.395 283.203 346.217 237.421 336.316 176.374Z" stroke="#0085FF" stroke-width="0.88" stroke-miterlimit="10"/>
<path d="M332.726 162.447C328.691 133.832 342.748 100.333 370.225 93.1177C400.062 85.2768 428.201 110.297 446.51 135.574C464.82 160.852 482.647 190.596 512.472 198.719C535.239 204.94 559.812 196.265 578.916 182.215C598.021 168.165 612.897 149.084 628.677 131.255C672.042 82.2582 725.97 39.8998 789.186 25.7272C852.402 11.5545 925.58 30.8072 963.198 84.4669C986.085 117.058 993.783 158.017 998.059 197.823C1001.44 229.322 1002.07 264.343 982.46 288.945C959.573 317.732 917.027 321.242 881.721 312.26C846.415 303.278 814.037 284.467 778.514 276.405C739.041 267.561 697.801 272.366 661.309 290.062C653.166 294.038 644.867 299.118 640.831 307.351C631.195 326.874 650.384 347.759 667.476 360.925L763.252 434.696C811.953 472.22 865.219 518.26 867.134 580.435C868.206 615.149 851.968 648.734 828.588 674.061C805.207 699.387 775.322 717.364 744.701 732.592C710.805 749.452 673.692 763.673 636.29 759.194C598.888 754.716 561.836 726.064 558.945 687.804C556.776 659.078 573.171 632.782 581.952 605.394C593.444 569.6 589.541 525.033 560.655 501.535C532.661 478.773 491.284 483.411 458.64 498.455C383.812 532.935 333.449 612.707 254.767 636.709C206.801 651.335 152.378 641.85 111.88 611.824C71.3828 581.797 45.858 531.856 44.81 480.871C44.1836 450.096 53.7961 416.732 78.6946 399.283C98.317 385.516 123.685 384.031 147.5 384.853C185.757 386.166 223.978 392.215 262.151 389.32C300.323 386.424 339.857 373.11 364.142 342.961C418.239 275.816 341.773 226.377 332.726 162.447Z" stroke="#0085FF" stroke-width="0.92" stroke-miterlimit="10"/>
<path d="M329.149 148.446C325.535 118.53 340.797 83.8779 369.598 76.9082C400.917 69.3371 429.718 96.0136 448.329 122.715C466.939 149.416 484.984 180.829 515.869 189.909C539.491 196.842 565.256 188.314 585.481 174.043C605.706 159.772 621.558 140.188 638.422 121.954C684.545 71.7299 741.654 28.6967 807.857 15.113C874.06 1.52941 949.996 23.1749 988.157 79.8899C1011.34 114.334 1018.62 157.195 1022.31 198.793C1025.22 231.715 1025.19 268.233 1004.24 293.498C979.773 323.046 935.373 325.843 898.742 315.757C862.111 305.67 828.696 285.399 791.824 276.282C750.828 266.271 707.726 270.463 669.331 288.197C660.755 292.185 652.01 297.302 647.649 305.805C637.278 325.978 656.828 348.139 674.403 362.25L772.78 440.991C822.842 481.092 877.481 530.187 878.276 595.062C878.71 631.273 861.123 665.974 836.309 691.914C811.495 717.855 779.935 735.978 747.701 751.255C712.021 768.152 673.017 782.226 634.074 776.803C595.13 771.379 557.065 740.801 554.801 700.798C553.102 670.784 570.701 643.703 580.41 615.321C593.082 578.227 589.89 531.672 560.221 506.59C531.468 482.282 488.224 486.282 453.906 501.314C375.199 535.758 321.126 617.885 238.613 641.359C188.31 655.728 131.72 644.685 90.1139 612.56C48.508 580.435 22.8146 527.892 22.7182 474.699C22.658 442.599 33.3305 408.008 59.6383 390.313C80.3689 376.349 106.845 375.319 131.672 376.644C171.531 378.791 211.27 385.871 251.129 383.638C290.988 381.405 332.473 368.3 358.335 337.353C416.107 268.429 337.34 215.321 329.149 148.446Z" stroke="#0085FF" stroke-width="0.96" stroke-miterlimit="10"/>
<path d="M325.571 134.47C322.295 103.253 338.821 67.4474 368.936 60.7354C401.64 53.373 431.2 81.7428 450.1 109.904C468.999 138.065 487.236 171.098 519.242 181.074C543.707 188.743 570.725 180.338 592.01 165.846C613.295 151.354 630.219 131.316 648.059 112.579C696.988 61.1403 757.229 17.334 826.407 4.47436C895.586 -8.3853 974.256 15.5057 1013.04 75.3252C1036.53 111.573 1043.34 156.312 1046.43 199.738C1048.84 234.095 1048.18 272.134 1025.96 298.026C999.95 328.334 953.682 330.432 915.702 319.254C877.722 308.075 843.283 286.381 805.05 276.147C762.54 264.964 717.583 268.526 677.281 286.27C668.283 290.271 659.08 295.436 654.395 304.21C643.24 325.07 663.2 348.47 681.244 363.453L782.332 447.396C833.743 490.098 889.768 542.236 889.43 609.811C889.238 647.531 870.302 683.337 843.994 709.878C817.686 736.42 784.5 754.728 750.652 770.005C713.214 786.938 672.355 800.878 631.869 794.546C591.384 788.214 552.368 755.623 550.693 713.928C549.489 682.65 568.268 654.771 578.88 625.395C592.745 587.012 590.251 538.469 559.812 511.793C530.3 485.951 485.201 489.313 449.184 504.32C366.611 538.678 308.84 623.346 222.484 646.157C169.856 660.096 111.122 647.605 68.2991 613.37C25.4767 579.134 -0.228869 523.929 0.626376 468.539C1.1323 435.101 12.8769 399.271 40.582 381.343C62.4208 367.195 89.9693 366.619 115.831 368.447C157.305 371.429 198.561 379.491 240.119 377.944C281.677 376.398 325.101 363.477 352.626 331.745C413.975 261.03 332.895 204.278 325.571 134.47Z" stroke="#0085FF" stroke-miterlimit="10"/>
</g>
<defs>
<clipPath id="clip0_20_114">
<rect width="1048" height="796.244" fill="white" transform="translate(0 0.474121)"/>
</clipPath>
</defs>
</svg>
