<svg width="35" height="97" viewBox="0 0 35 97" fill="none" xmlns="http://www.w3.org/2000/svg">
<path opacity="0.25" d="M0.904621 45.2316L34.0515 0.849302C34.1381 0.732405 34.2422 0.65976 34.3518 0.639706C34.4614 0.619653 34.5721 0.653005 34.6711 0.735934C34.7702 0.818863 34.8536 0.948005 34.9118 1.10853C34.9699 1.26905 35.0005 1.45445 35 1.64342V11.3871C35 12.0047 34.8309 12.5972 34.5515 12.9753L8.08105 48.408L34.5515 83.8407C34.8382 84.2189 35 84.8113 35 85.429V95.1727C35 96.0172 34.4338 96.4836 34.0515 95.9668L0.904621 51.5845C0.622894 51.2078 0.394989 50.7259 0.238232 50.1754C0.0814781 49.625 0 49.0206 0 48.408C0 47.7955 0.0814781 47.1911 0.238232 46.6406C0.394989 46.0902 0.622894 45.6083 0.904621 45.2316Z" fill="white"/>
</svg>
