<svg width="483" height="227" viewBox="0 0 483 227" fill="none" xmlns="http://www.w3.org/2000/svg">
<path d="M457.46 188.17L447.558 201.401L437.744 188.17H422.732L441.199 215.212V226.47H453.888V215.212L472.443 188.17H457.46ZM356.935 188.17V200.849H375.896V226.47H388.585V200.849H407.546V188.17H356.935V188.17ZM328.566 226.47H341.255V188.17H328.566V226.47ZM295.639 206.217H281.411V199.341H295.436C297.12 199.341 300.372 199.457 300.372 202.648C300.401 205.84 297.468 206.217 295.639 206.217ZM268.722 188.17V226.47H281.411V217.417H292.938L299.443 226.412L314.135 226.47L306.295 215.154C310.012 213.123 313.322 209.322 313.322 202.213C313.322 188.634 300.43 188.141 296.829 188.141H268.722V188.17ZM210.155 188.17V226.441H252.432V215.821H222.844V212.368H250.545V202.155H222.844V198.818H252.432V188.199H210.155V188.17ZM182.396 188.17L169.852 215.299L157.221 188.17H142.674L161.548 226.47H178.157L196.914 188.17H182.396ZM110.124 209.003L115.06 198.992L119.996 209.003H110.124ZM124.99 188.286H105.217L88.0559 226.47H102.719L105.594 220.057H124.526L127.401 226.47H142.151L124.99 188.286ZM85.3264 188.17H71.9115L63.0844 209.641L53.9959 188.17H41.8296L32.9153 209.844L23.943 188.17H10.5281L26.7596 226.47H39.0711L47.9853 206.072L57.0738 226.295L57.0157 226.47H69.2982L69.2401 226.295L85.3264 188.17Z" fill="white"/>
<path d="M391.779 152.481H383.039L387.395 157.675H387.453L391.779 152.481ZM398.777 144.125H375.983L380.339 149.319H394.422L398.777 144.125ZM405.804 135.769H368.985L373.341 140.963H401.448L405.804 135.769ZM412.802 127.413H361.959L366.314 132.606H408.446L412.802 127.413ZM419.829 119.056H354.961L359.316 124.25H415.502L419.829 119.056ZM426.826 110.671H347.905L352.26 115.865H422.471L426.826 110.671ZM433.853 102.315H340.907L345.262 107.508H429.498L433.853 102.315ZM440.851 93.9584H333.88L338.236 99.1521H436.525L440.851 93.9584ZM249.761 155.151H245.928L247.816 157.414H247.874L249.761 155.151ZM255.859 147.781H239.772L241.66 150.044H253.971L255.859 147.781ZM261.956 140.411H233.588L235.475 142.674H260.069L261.956 140.411ZM268.054 133.042H227.432L229.319 135.305H266.167L268.054 133.042ZM274.152 125.672H221.276L223.163 127.935H272.264L274.152 125.672ZM280.249 118.302H215.091L216.979 120.565H278.362L280.249 118.302ZM286.347 110.932H208.935L210.823 113.195H284.46L286.347 110.932ZM292.416 103.562H202.78L204.667 105.826H290.557L292.416 103.562ZM298.513 96.1926H196.595L198.482 98.4558H296.626L298.513 96.1926ZM304.611 88.8228H190.439L192.327 91.086H302.753L304.611 88.8228ZM102.632 155.151H98.6543L100.542 157.414H100.716L102.632 155.151ZM108.817 147.781H92.4695L94.3569 150.044H106.901L108.817 147.781ZM115.031 140.411H86.2847L88.1721 142.674H113.115L115.031 140.411ZM121.216 133.042H80.0999L81.9873 135.305H119.299L121.216 133.042ZM127.401 125.672H73.8861L75.7735 127.935H125.484L127.401 125.672ZM133.585 118.302H68.1078L69.9952 120.565H131.669L133.585 118.302ZM139.77 110.932H61.923L63.8104 113.195H137.883L139.77 110.932ZM145.984 103.562H55.7091L57.5965 105.826H144.039L145.984 103.562ZM152.169 96.1926H49.5243L51.4117 98.4558H150.252L152.169 96.1926ZM158.354 88.8228H43.3105L45.1979 91.086H156.408L158.354 88.8228ZM1.84619 39.4685H60.1227L58.3515 37.3504H0.0749512L1.84619 39.4685ZM8.06003 46.8382H66.3075L64.4201 44.5751H6.14361L8.06003 46.8382ZM14.2448 54.208H72.4923L70.6049 51.9449H12.3284L14.2448 54.208ZM20.4296 61.5778H78.6481L76.7607 59.3147H18.5423L20.4296 61.5778ZM26.6435 68.9476H84.8619L82.9745 66.6844H24.7271L26.6435 68.9476ZM32.8283 76.3174H91.0177L89.1303 74.0542H30.9409L32.8283 76.3174ZM39.0421 83.6872H97.2025L95.3151 81.424H37.1257L39.0421 83.6872ZM164.538 81.424H106.436L104.52 83.6872H162.622L164.538 81.424ZM170.723 74.0542H112.621L110.705 76.3174H168.836L170.723 74.0542ZM172.727 2.61953H176.269L174.498 0.530457L172.727 2.61953ZM166.513 9.98932H182.425L180.538 7.72615H168.429L166.513 9.98932ZM160.328 17.3591H188.639L186.722 15.0959H162.216L160.328 17.3591ZM154.114 24.7289H194.824L192.936 22.4657H156.031L154.114 24.7289ZM147.93 32.0987H201.008L199.121 29.8355H149.817L147.93 32.0987ZM141.716 39.4685H207.193L205.306 37.2053H143.632L141.716 39.4685ZM135.531 46.8382H213.407L211.52 44.5751H137.418L135.531 46.8382ZM129.317 54.208H219.563L217.676 51.9449H131.233L129.317 54.208ZM123.132 61.5778H225.777L223.889 59.3147H125.02L123.132 61.5778ZM116.918 68.9476H231.962L230.074 66.6844H118.835L116.918 68.9476ZM179.986 76.3174H238.146L236.259 74.0542H178.099L179.986 76.3174ZM186.171 83.6872H244.331L242.444 81.424H184.283L186.171 83.6872ZM302.782 81.424H252.578L250.661 83.6872H304.669L302.782 81.424ZM296.655 74.0542H258.791L256.875 76.3174H298.513L296.655 74.0542ZM275.575 54.208H280.104L278.217 51.9449H277.491L275.575 54.208ZM269.361 61.5778H286.26L284.373 59.3147H271.277L269.361 61.5778ZM292.387 68.9476L290.499 66.6844H265.034L263.118 68.9476H292.387ZM296.103 48.9853H354.206L349.85 43.7917H291.748L296.103 48.9853ZM303.13 57.3416H361.262L356.906 52.148H298.804L303.13 57.3416ZM310.157 65.6979H368.289L363.933 60.5043H305.802L310.157 65.6979ZM317.184 74.0542H375.315L370.96 68.8606H312.829L317.184 74.0542ZM324.182 82.4105H382.313L377.958 77.2168H319.826L324.182 82.4105ZM447.878 85.6022H389.689L387.337 88.3876L384.985 85.6022H326.853L331.209 90.7958H443.522L447.878 85.6022ZM454.876 77.2459H396.686L392.331 82.4395H450.52L454.876 77.2459ZM461.903 68.8606H403.742L399.387 74.0542H457.576L461.903 68.8606ZM468.901 60.5043H410.74L406.385 65.6979H464.545L468.901 60.5043ZM475.927 52.148H417.767L413.411 57.3416H471.572L475.927 52.148ZM482.925 43.7917H424.794L420.438 48.9853H478.57L482.925 43.7917Z" fill="white"/>
</svg>
