<svg width="35" height="97" viewBox="0 0 35 97" fill="none" xmlns="http://www.w3.org/2000/svg">
<path opacity="0.25" d="M34.0954 45.2316L0.94853 0.849302C0.861916 0.732405 0.757824 0.65976 0.648212 0.639706C0.538599 0.619653 0.42791 0.653005 0.328856 0.735934C0.229802 0.818863 0.146403 0.948005 0.0882332 1.10853C0.0300636 1.26905 -0.000516263 1.45445 6.59427e-06 1.64342V11.3871C6.59427e-06 12.0047 0.169124 12.5972 0.448534 12.9753L26.919 48.408L0.448534 83.8407C0.161771 84.2189 6.59427e-06 84.8113 6.59427e-06 85.429V95.1727C6.59427e-06 96.0172 0.566179 96.4836 0.94853 95.9668L34.0954 51.5845C34.3771 51.2078 34.605 50.7259 34.7618 50.1754C34.9185 49.625 35 49.0206 35 48.408C35 47.7955 34.9185 47.1911 34.7618 46.6406C34.605 46.0902 34.3771 45.6083 34.0954 45.2316Z" fill="white"/>
</svg>
